<mxfile host="app.diagrams.net" modified="2024-06-21T11:24:11.220Z" agent="Mozilla/5.0 (Macintosh; Intel Mac OS X 10_15_7) AppleWebKit/537.36 (KHTML, like Gecko) Chrome/125.0.0.0 Safari/537.36" etag="VbSBvMZ8hQ6OflD8bZAM" version="24.5.2" type="device">
  <diagram name="Page-1" id="drzkGFcnIvkd6Lo0SVuG">
    <mxGraphModel dx="989" dy="626" grid="1" gridSize="10" guides="1" tooltips="1" connect="1" arrows="1" fold="1" page="1" pageScale="1" pageWidth="827" pageHeight="1169" math="0" shadow="0">
      <root>
        <mxCell id="0" />
        <mxCell id="1" parent="0" />
        <mxCell id="8sV5FwSNkH7HSxSM9dJd-5" style="edgeStyle=orthogonalEdgeStyle;rounded=0;orthogonalLoop=1;jettySize=auto;html=1;exitX=1;exitY=0.5;exitDx=0;exitDy=0;entryX=0;entryY=0.5;entryDx=0;entryDy=0;curved=1;startArrow=classic;startFill=1;shadow=1;" edge="1" parent="1" source="8sV5FwSNkH7HSxSM9dJd-1" target="8sV5FwSNkH7HSxSM9dJd-2">
          <mxGeometry relative="1" as="geometry" />
        </mxCell>
        <mxCell id="8sV5FwSNkH7HSxSM9dJd-6" style="edgeStyle=orthogonalEdgeStyle;rounded=0;orthogonalLoop=1;jettySize=auto;html=1;exitX=1;exitY=0.5;exitDx=0;exitDy=0;entryX=0;entryY=0.5;entryDx=0;entryDy=0;shadow=1;" edge="1" parent="1" source="8sV5FwSNkH7HSxSM9dJd-1" target="8sV5FwSNkH7HSxSM9dJd-3">
          <mxGeometry relative="1" as="geometry" />
        </mxCell>
        <mxCell id="8sV5FwSNkH7HSxSM9dJd-7" style="edgeStyle=orthogonalEdgeStyle;rounded=0;orthogonalLoop=1;jettySize=auto;html=1;exitX=1;exitY=0.5;exitDx=0;exitDy=0;entryX=0;entryY=0.5;entryDx=0;entryDy=0;curved=1;shadow=1;" edge="1" parent="1" source="8sV5FwSNkH7HSxSM9dJd-1" target="8sV5FwSNkH7HSxSM9dJd-4">
          <mxGeometry relative="1" as="geometry" />
        </mxCell>
        <mxCell id="8sV5FwSNkH7HSxSM9dJd-1" value="FrontEnd" style="rounded=1;whiteSpace=wrap;html=1;fillColor=#fff2cc;strokeColor=#d6b656;shadow=1;" vertex="1" parent="1">
          <mxGeometry x="160" y="240" width="120" height="80" as="geometry" />
        </mxCell>
        <mxCell id="8sV5FwSNkH7HSxSM9dJd-2" value="TeamModule" style="rounded=1;whiteSpace=wrap;html=1;fillColor=#d5e8d4;strokeColor=#82b366;shadow=1;" vertex="1" parent="1">
          <mxGeometry x="360" y="120" width="120" height="80" as="geometry" />
        </mxCell>
        <mxCell id="8sV5FwSNkH7HSxSM9dJd-3" value="Payement" style="rounded=1;whiteSpace=wrap;html=1;fillColor=#d5e8d4;strokeColor=#82b366;shadow=1;" vertex="1" parent="1">
          <mxGeometry x="360" y="240" width="120" height="80" as="geometry" />
        </mxCell>
        <mxCell id="8sV5FwSNkH7HSxSM9dJd-8" style="edgeStyle=orthogonalEdgeStyle;rounded=0;orthogonalLoop=1;jettySize=auto;html=1;exitX=1;exitY=0.5;exitDx=0;exitDy=0;entryX=1;entryY=0.5;entryDx=0;entryDy=0;curved=1;startArrow=classic;startFill=1;shadow=1;" edge="1" parent="1" source="8sV5FwSNkH7HSxSM9dJd-4" target="8sV5FwSNkH7HSxSM9dJd-2">
          <mxGeometry relative="1" as="geometry">
            <Array as="points">
              <mxPoint x="500" y="400" />
              <mxPoint x="500" y="160" />
            </Array>
          </mxGeometry>
        </mxCell>
        <mxCell id="8sV5FwSNkH7HSxSM9dJd-4" value="Admin" style="rounded=1;whiteSpace=wrap;html=1;fillColor=#d5e8d4;strokeColor=#82b366;shadow=1;" vertex="1" parent="1">
          <mxGeometry x="360" y="360" width="120" height="80" as="geometry" />
        </mxCell>
        <mxCell id="8sV5FwSNkH7HSxSM9dJd-9" value="teamDB" style="shape=cylinder3;whiteSpace=wrap;html=1;boundedLbl=1;backgroundOutline=1;size=15;fillColor=#ffe6cc;strokeColor=#d79b00;shadow=1;" vertex="1" parent="1">
          <mxGeometry x="390" y="10" width="60" height="80" as="geometry" />
        </mxCell>
        <mxCell id="8sV5FwSNkH7HSxSM9dJd-10" value="" style="shape=flexArrow;endArrow=none;html=1;rounded=0;endFill=0;entryX=0.5;entryY=1;entryDx=0;entryDy=0;entryPerimeter=0;exitX=0.5;exitY=0;exitDx=0;exitDy=0;shadow=1;" edge="1" parent="1" source="8sV5FwSNkH7HSxSM9dJd-2" target="8sV5FwSNkH7HSxSM9dJd-9">
          <mxGeometry width="50" height="50" relative="1" as="geometry">
            <mxPoint x="430" y="130" as="sourcePoint" />
            <mxPoint x="480" y="80" as="targetPoint" />
          </mxGeometry>
        </mxCell>
        <mxCell id="8sV5FwSNkH7HSxSM9dJd-12" value="payementDB" style="shape=cylinder3;whiteSpace=wrap;html=1;boundedLbl=1;backgroundOutline=1;size=15;fillColor=#ffe6cc;strokeColor=#d79b00;shadow=1;" vertex="1" parent="1">
          <mxGeometry x="510" y="240" width="80" height="80" as="geometry" />
        </mxCell>
        <mxCell id="8sV5FwSNkH7HSxSM9dJd-13" value="" style="shape=flexArrow;endArrow=none;html=1;rounded=0;endFill=0;entryX=0;entryY=0.5;entryDx=0;entryDy=0;entryPerimeter=0;exitX=1;exitY=0.5;exitDx=0;exitDy=0;shadow=1;" edge="1" parent="1" source="8sV5FwSNkH7HSxSM9dJd-3" target="8sV5FwSNkH7HSxSM9dJd-12">
          <mxGeometry width="50" height="50" relative="1" as="geometry">
            <mxPoint x="510" y="310" as="sourcePoint" />
            <mxPoint x="510" y="280" as="targetPoint" />
          </mxGeometry>
        </mxCell>
        <mxCell id="8sV5FwSNkH7HSxSM9dJd-16" value="adminDB" style="shape=cylinder3;whiteSpace=wrap;html=1;boundedLbl=1;backgroundOutline=1;size=15;fillColor=#ffe6cc;strokeColor=#d79b00;shadow=1;" vertex="1" parent="1">
          <mxGeometry x="390" y="470" width="60" height="80" as="geometry" />
        </mxCell>
        <mxCell id="8sV5FwSNkH7HSxSM9dJd-17" value="" style="shape=flexArrow;endArrow=none;html=1;rounded=0;endFill=0;entryX=0.5;entryY=1;entryDx=0;entryDy=0;entryPerimeter=0;exitX=0.5;exitY=0;exitDx=0;exitDy=0;shadow=1;" edge="1" parent="1">
          <mxGeometry width="50" height="50" relative="1" as="geometry">
            <mxPoint x="419.71" y="470" as="sourcePoint" />
            <mxPoint x="419.71" y="440" as="targetPoint" />
          </mxGeometry>
        </mxCell>
        <mxCell id="8sV5FwSNkH7HSxSM9dJd-21" value="" style="shape=image;verticalLabelPosition=bottom;labelBackgroundColor=default;verticalAlign=top;aspect=fixed;imageAspect=0;image=data:image/png,iVBORw0KGgoAAAANSUhEUgAAANwAAADlCAMAAAAP8WnWAAAAvVBMVEXgI07////u7u7t7e339/f6+vrz8/P8/Pz09PTgIEzfAEDfAD7fAEHgHEru9fTu8vHfEEX5///eADrt4eTy+fjreo/iM1r+9vjt5uj85+vgJlLiTmzrw8v63uT51t3xpLPry9Hmjp/kZX3jP2LkboX/+Pr2xc7nmqj75erysLzs19vdADPtkKHleo7ps73ooq/kSWnnXXnquMHshpnkaIDmV3PdACry1dv1usXorLfqvcbvmqn3ytPyqrjwn64xLhbBAAAVaElEQVR4nO1deX+iPhOXeIaQA6WePWztYf310Fqf2m277/9lPSTcECCigrufnb+ydmDnS46ZzEwmNY0TsKne5q0ObzV4q1G3my3eavMWiDG2eKvpM3ZijLxV16KMHfvHumBs+u8OMcqEaCoI0UgVovYP3D9wJwuubpPDzlsuu03uezk5ovgtwdj0GTs+I4gxAp+x4zM2UxnbPmPDZ2zFGOv50rrgOEzgfwbgiAu8z9AE/icG/gcJGPknBo0oYxtEPjFoRxmDd0sZDyqEABcfP43o+IkPtND4qSfHj5SxVQ+Pn3p8oMkGcSCElBFER7tMiNLAZU/lf+AKgCu6RKjM/Nx1ilIae+SgQtTanFqcmrzV4a0GbzV4q8NbTfHngLG9E2Pw7ob/iMd4sf399fpraGn5QkjfmCNEQs8pzPxgiVAZPwFjVM/Z7378n84Y09HqMmu0h4TIWadOS4lfGrBmE+7e3P2FFso3qgli4wv33e3tQKi4v8FC+WIOOswuiRBi8B97XhBwGAulY1OryUm0GrzVaNnNoNURf27JGKOPpDN2JIxOaww9dPM2/7FnQKafDc0DCNEJ67mUJaKeUDH1rJkvZUyzUOrkyu26Gt6IN04NPkqNL+eNewlRuRKnI90FV0N8zbTccWrMPshfYKHMsAuOPXFw3j8xeqB/toXC333mgcPv9o/nyOvImjHp0T0tlEbFZK69Sdd9sRrmEvvg7DXml7nXu5VVQfzLHWqzSp4dOLD7QAC5Nmohgt1rrhQKDQhOlbsZyI0Ah417C5A3VIsSWpM/10LRNNrnio7NRlrLeoljs9HZfXd8CyU02gJGlWEZMMaGpQNuylUBOuNCrJPY7D+9kriZpD4sxczj6rzT8JuyVqcoY+ojomm+Yw7AbJrffSbBZv/RXVUKCFGxKqAfdm91t4QO3xGWYqtBOABFVUG1Spzc4hr60egipdvEWrMhf6SFQnusxuz5tsAp3SZIfyX7gyvfcKafBoR32t04C1sNsmFBwznVIZHumuhIvCLpjpQsZ4f1zNhv07xNH5OC2LMVdqQoS1vxZnWFWY+ed7Ox2UvOqNhmNT6LylXiG7YhZJU5KEXXnZ2AhWLvzygRjJR6PkmL2K1gckTB3ejXZCjT3TFCA+0Q4FK2zEquPa2+OP98eDq72Sz7Y0792XL1vr7+PJ/fcZgURF17mvbU/SQvRj449qUSgkiA49PPDZmIecpbzuzkLWcaA8HOGUXLmdoBY4ta1vDy8emmz3SD2YQxhg7ZLWz/YCBjvFq/nvcsSzhgnXCM/b77/35Z65zlhBPsmzIhZNK6oR7hlN3TQgGUNOfb9ZLDwjBLPBukwWbr7YISfw8KhuhSu82dcnxcTjOEOI6F0iDg7azPcSnIxwkzw+jffva88UOe77UblYfZWibEUS0U8NDXM/tLRhAb+uxp7rynt1XrOTwrGdzoCbNdkXmyMjR5HBJ7hRloTwpzzrbBRuWBA+ZobRSF5uAz2POUK46twmppg/suAC42O1UtlMGzrvTBswhiNLvqKek5rgxIWRbK7/2hCbKH5815voXCOW9JXIhjWChAu+wrjSRFfIbS4MaTUsDRp67qyn9Agn1aFJz6nKO9yQG7bQdwtToolGSzy2p5ASvoNk7sTju2Krg0KsJWY4MjgyP3arP/KOCO3HPkDVWGDda03cHtsCsgv6rDZq+W/loiBGup7ArU93PaZYXYbD1ngWA/R55HmsJ+LujjvJ34xV6m5N7guIXij0iyGQ+0wyXZ0Gqx2bZlWInTGZtpB7NQyDTTKXx8Mt7C4OqsxlaHslDIW3U6wCF9AQIzCSxsK0lf51ooSj5c7XeVawkn2DdDqXvmGzcB0aeZ43EO6bmUWAGwBis9938/MrFnX31xaR2PGbpI6rndkmwo+awdZvO2D6HzCDgnWwWP7xLgdrFQKFls9IqHpE1wTMPgRl6y33s2uGwLxfy4TYt4lkrsibhriZD2xxtK6DE3yabph5GbjaDVsDpvq5OAZoOYOzI2hbSWn4oDjUUjFBNv+jHxZnaSzfDtuaafBjTbPAk7m+k0cCnhJQ0GW76DiBJiapdfE2M/z91BqXsR1s0k7MY1rs08Je6Ds+j5ejJGSNlBXgax24jMi4ifQ5/ngfOH5c8YZQc0qiA00MLD8iyimfAkfViGs9zM0bJqS0RGxlc4ea95EbMo9J+03L6wKqjcOJYT7lMQ7JgBmcSEhKwHUlRBoMTpR9XGsZSgfkFDvg7ymTAF2S3JtVBAdjZIVYQezZAjhy4kazia0jxwKuHb8slYRzJ96FLSA3hJ5Iazd66g/ZGbDVIFsXez6docnMxnaQ+gF9M7YRA5V+CpAvJ+ioOSrSgILRHkRx7ugv1mpoUyrCQCkEP6LY34OiSptA4ZIvctzUKhnycIDq1NEAKXjq0GYZb5ReSDuUrC6Cdyfo48ZIRg2RdJSbJpt1rW5tSmHOvb1nLo5KP1nBVehhhITj56FsrstBQ47q4BDfn06XCVPW+MqwwLZXxK4HB3dcGnmz/QyBvMmTZw3E5X4jLlWA1BLA6xhlxwpHeTb9Drj+ngfp/GagmxgW8/vB2aA+7uWmV3iftycLwswqDyXRyEmBnw/WVInLwyEcGxBfuqqbkE9PuQ4hCwAgvlpVrzC+La7PZhGuQLO9bir1tlbwfeWGkWCiCP3Sr7bvw0pZZFHIcIT7M1tdH2bLyLiwotUpQ4n3jflQXzOTEDT9YP2++L+ehj+uv1+p2nOu70uZ20xTQH0XxcqZki8k11ZBNPuN19DeBHFLIcRE+VDs19Sd/G5lzEnQ7I8KSU+Y6ENyQzDdg8yW2dKhmLzCiP+XMayrwYsQeaGcIanI4TfXfCM5IdwlJLOT5RssdleM75qsCrYfVHLynsKlxxK5lkQ3+dpBtMjfAkJw+FvP7Byg4NcpJsyFuldtheZGy19BCWWFXM0eZEwsU7EzvT4kk2wZFJJ1mFWr9WpxjMyidYswIwaUk21DHEYIAQ8sNiOuoiQ5wZE9Zt5RvcJDn7npw8FNCxvwLsO+FnaKPCk7OHz++L0eBuWB8Oe/PL78ev9xnTTwwh+1QBB2yh0bcAB8df9yNAiHtQs+VrRZMMp6+3/VOKoPPEh3QLRXMCzGCIoT07ha8WbTUt9XCgvWWe/6yMU1lg4ThkoUiqYjmtAcZ9ICrL4JUlKU3VCkpTNSxruN3op2GVop4fx/JUAUgecYXGB7VmkMecKQhi0vIDufYj86faKcSdedZp7iksc/WLAqtvT7xtUPghYJQdpW6+9qsfneyagvw0YGoz2eC4WlQE16b0ZVZ17+EbAtTSgK0ZWyYqB0iWH9+pT+lntV4mW30RIEuySZK56YNsjuQjrXW1thuSJtnI+mJRp7sWkQFksazSVyGSg6UOonimbLDzix2jySr2QslDhZ2n32vHrWRDRhl1d45M7EfLs1D2LrB0pnSI+Bjg1v6wPGSxq/AjTfO1ok0TfjddIY5XyQaQ82qSAPGEllDJhs4rSZUT55KPDq6ujfpVHLoe12MWisL5OV/mzCLV0RpWg1kF6NjQA8e3Bl7FKbvlnlayW25+i91y01aKMJqDCvoODTtCiOaxa+3RXvnzrjsoq9YeHZW+h0Wj0mrtaZdlu+fRXL3WnjK4ZK09h/GxZFslCi5U7KopO5ccnKeOMcaOMksZ2+3YKYcywMWSbI5Yaw+AchUCWpRZMFeaL39McLTMQoLktcxDr6inVGtPGVzWNRq8ZZaZiGsMyxyW9iOj8hwPEPu25ZEtFG+dItelrZii/kY5ForXz/V+WWuKqFxXkoXigqPphwIODW5VOjhAylJ2vHZy2Zcx0ERJ+2OB+/LnXGpfHP5GpZIS4NlnqpvhOHpOMG7L6Tp9Wo4PJcZYTuIVGoIKwFkPZeg6OI7H5466K/AZe2VYmHhFYhdaRutjuXdJRutMSRj9uyS9/VzAqPmM7RBjGWm47EnzhNhzJ84rOXRETjhI34l7725o9/KuO+hUFEGeQyhxi5w/LyGDs+d7QFXuK5CCgwc93oZGBwJ3PxOVHCBmaDylCuCkDgf2c8CFxstD2dtCOQuVKMWsDjItFLFOycYlHM8PuNB4lZiEhZJ9x0HG9Qqd1iTywdG9mXsPQ0d2phm/tw7Yc8aLFb/QskCsgEax8TRO6aUbkQsticQEYw/WAbU7GgGQn2STo8StdawT0GW6EgdetRkq2bPqU0up2LES2Zu5QIjC4KYxQxGyDAtluJzd/oxMAOivxLiEmB7wHLet5RLgdrdQ4h+bX42XtvyQBx1jwzjrEdBLgMO3hOxzliE6otFFOA3YjWC7qXsd/4rIUKsTK+rA/7iIBwDYsBF/pH3eazjvceYUYy+mmfA2GG+muYfRCZfhF8KxFRKioCqgcXFsiw4kNqvrcyAGxKPbXbB7lbDAIC+E+1ocHLsKP8vWZP/LGEjcDyly5eJKfPxCxQwNhk73+yqGg1eG2gvcKPysvZfbv6Q/jSc2i8KhMXAX/z0IcKEZBcePMRzijs7i4OzVMWS8wbyDSirDEgwTU25NEj6UNbq2f9RGYV4cu1fCuUGiODh2Fr6Ggz3QA1xoOY97DPAsUZ9qwNja/rEZ9Xr1o88ZvK7VHgsK+zFDA8Ne1cJU8ELLBDgxvKJVnx+YSFTK1GFOufc9VIExJZ/+w2L+7n8ZwygRCsbLmBIfQsjBXWV6hYwrntZKCtd2gmNAz6N37O5/XVQ7Gedm7xFwPDhgK/aUokG+bHf8CaJ0e42M8DuhF95/4RSmkxyljm2ZtbjhHM9Ol5i6xnuT+oyUV/tjv39ne/P0RyeBsXAcgb1SMPQreb7FpA3OFagaJ6Jlykxd1p+aDZfR4kXjYE7SJZ61nSMNhe1mfWHbRa4axf2Y3EWTbGTWPa8adObeJUR+xETI6RA0deK7o6KbVaFILLff9UfTXwP3slBCszhCDG2upkNK43sGOfMzcd6d4jdSeIO4yNrZI8KUeigFfCgJE8UjzHQGxyoBftyvu+/+KrpYdnmutlsbSt8e7ELLzNUbKq0PfFA64IruVR3zxhRrLW/LL7Rsp5UXj3tF/FbnY9+oBnrwnB1yh58CsS/ufzWFRYfuzXAhrf0utLTiNTR3FezGct9Ip0XBIVEs3uT+wqDmxCEutOyc79V1eBacQiiaC4BX/PIJBxz6oIe80DKxpdtJrvHQB1c4nqxvfXBi4T3ghZZgUdyViuEi8E8vCg4BWHOktcFBPACS8EayNgMQcRu3NFWozlSMsQWsr6KJMwKb9+7CGSr2cuK4DW8x2oqqWJ2YtHu50zfFxMK1RfjdRQ1Lved8ZuuGbYg062CvQMigUP4y6/es0Pj5Vh2VccfGGXEDthvUyy2YWyDKMy9w65exGdLwVFYNSMJZVNdzPeCA67/mlzouEp9b7Np3ED3T8CJMk3v6FNK3kfHL7+lxQxA35ADXRSXmnGZZYLd9JmZvtiQhbUtUU4TxahD5DEKBO0tbD6RdxhATVz3gDwhZPK4nu0CDaONMN//KbYm/IoX0ReQOZCcMF+uPw1koi+caYjvVLWD40wLRW6mVZ5zxZYU9TdAY+TPpCFdud3rPux3dxOh5SONXbl8qzjjb5qdhQ4Zda8cEZw/LxTtSVnQMvc+DQqo+ONV0MHSh9cIdN67vAK7AnOPH/y7OlAYmZMbZheya+x9FCw5daVq40DR6ocoXWnoGlU3O7PRtmaZvg2mBVRNiJL2HpWFk37XNUP+rxy9Kb0Tf3VbOyLf3M8AKLavsJixEYDEG0iaTbHbXc506pWT+eMNSKmpAzPTx+js+2t1PTBW3hBDakxUEzkTIRloJV27z9/LPN7hf95HB+AXwPizMDB1vrs9lt706AlwrGt7onAJ6HjDzm4ZKAufW4KCLl+vbSZ/fhm4YjI2X70/bjzqhNBWcqlGJfpOIz0bkMB/8QsukhRJOAwaUcAU9GCwWvZ73FTLWKdVzdaLYFaC+3QzFhatq19wXSLKRuZMCRv5RHEYQe3fE76R6aQebdOx3h7q5e2+pSltmjnMnGO3KB7O4c5ML4a+VxjqZDJgmRJmZsgG4NoilH7EUawCPe8IfceeNYR7JiQlxFAtlD3DNyB7eXoTOtnJsnj/Cz4fAg93BFbJQdk0D9i2UuyULIUPL14EmVXkQf1BHCG8Qi/BiPV9aF5wz351iV3x2OvWxIi23KlZBxsQjVs+PbNnIZl9z07SkuzrMPpxLWxqejxSJlDxlIYrGCtQO5NYlM9+rR2EPRjZ5cCrjvcpUHrb7zS3p7+6I0RfZRYgSz/J42v7BEOXt9dn6pUeIKHAnVed4vKBerSDn7/r6yJel7wtusOnaVtnyaTvXNOpGeeayalqs3/N2f06ko2bcJt5dmoVSzzmoJBgvZzfXL4t6pPb+oCZZTIxVh3pCOK4Ijm1HIQom2RSljmmazWbkJ2lpCvQccIlAB08n2Pl/K5hks0M/B4z2Jwahzar7iSWmCkSvBHh94cQS9DPq322sLG1FSjyYHLOkEmC1acgTKZZKtA5tlk/dQvHeHVbn/pC84QcwPHCU67juby294N8BLJTQaAsYdx6W9eiwHCT7DRuPzhs9cEsMefHQkJmkPiydeb57faz9GRtmskQRNCYXZjPEaL0auPZhFhOiZFUQ/sTaNBFGYQZPPw0J0RhgfTKgBYUo3UIJpvI2rrsxeh9Z0als3v63zjgKdmIWSgDuK1bQDRqz77gQ9KV7n3XObQdw5RjOLuNN1J6EDP4kheitBnsIAYItT7zYFW81/bJXoZ1M299tBIztOGOoPpbk3eZFNJ8PMnYNzETFrc6HtZcQlWxWtZ9IDAUy/HW3wzoV00enZaEMVuEhifXx612aEE0FIU7IQmloj6HYCWTdzZuzqctZpw4CLjHzD+vaI70NCtyrPERCqFLFrbZ0EY5Km3KhJf+3rNhVxy92FS97JWPMKaTVaBFw7VWx5sdc15f2jrWVZEwVIlJxK1+IMi2UtrYVNZ557EefPF0CAorvpE7LQqHke4n4hQ4IT9b3Ay0c8ZPNUJXD6idjofxa/g+x/mr9OR2ScAbRnw+uM3y9/vyeD3isiybXv1LBidmpIrOY0FFG+bIGKKXBu7MyHZNC5GkYiRAuOEeKki2UZirjH2+hKA2IP9JC+QfusObXXzrnQqtlirV4nM1qyrsPKUSFboa/R4n/A3d4cEcyyGOMh4+vKCfZJGtY2a2gPlao2BXwGcUjfCulyQppxRmbPmNDVnFLa8sqbrVTKm4F7+5IhGgHj5SwE4+On9313B478fh7sydHbBb9s1D27bni4P4PMYAmtPbfV6cAAAAASUVORK5CYII=;" vertex="1" parent="1">
          <mxGeometry x="366" y="364" width="28.82" height="30" as="geometry" />
        </mxCell>
        <mxCell id="8sV5FwSNkH7HSxSM9dJd-22" value="" style="shape=image;verticalLabelPosition=bottom;labelBackgroundColor=default;verticalAlign=top;aspect=fixed;imageAspect=0;image=data:image/png,iVBORw0KGgoAAAANSUhEUgAAANwAAADlCAMAAAAP8WnWAAAAvVBMVEXgI07////u7u7t7e339/f6+vrz8/P8/Pz09PTgIEzfAEDfAD7fAEHgHEru9fTu8vHfEEX5///eADrt4eTy+fjreo/iM1r+9vjt5uj85+vgJlLiTmzrw8v63uT51t3xpLPry9Hmjp/kZX3jP2LkboX/+Pr2xc7nmqj75erysLzs19vdADPtkKHleo7ps73ooq/kSWnnXXnquMHshpnkaIDmV3PdACry1dv1usXorLfqvcbvmqn3ytPyqrjwn64xLhbBAAAVaElEQVR4nO1deX+iPhOXeIaQA6WePWztYf310Fqf2m277/9lPSTcECCigrufnb+ydmDnS46ZzEwmNY0TsKne5q0ObzV4q1G3my3eavMWiDG2eKvpM3ZijLxV16KMHfvHumBs+u8OMcqEaCoI0UgVovYP3D9wJwuubpPDzlsuu03uezk5ovgtwdj0GTs+I4gxAp+x4zM2UxnbPmPDZ2zFGOv50rrgOEzgfwbgiAu8z9AE/icG/gcJGPknBo0oYxtEPjFoRxmDd0sZDyqEABcfP43o+IkPtND4qSfHj5SxVQ+Pn3p8oMkGcSCElBFER7tMiNLAZU/lf+AKgCu6RKjM/Nx1ilIae+SgQtTanFqcmrzV4a0GbzV4q8NbTfHngLG9E2Pw7ob/iMd4sf399fpraGn5QkjfmCNEQs8pzPxgiVAZPwFjVM/Z7378n84Y09HqMmu0h4TIWadOS4lfGrBmE+7e3P2FFso3qgli4wv33e3tQKi4v8FC+WIOOswuiRBi8B97XhBwGAulY1OryUm0GrzVaNnNoNURf27JGKOPpDN2JIxOaww9dPM2/7FnQKafDc0DCNEJ67mUJaKeUDH1rJkvZUyzUOrkyu26Gt6IN04NPkqNL+eNewlRuRKnI90FV0N8zbTccWrMPshfYKHMsAuOPXFw3j8xeqB/toXC333mgcPv9o/nyOvImjHp0T0tlEbFZK69Sdd9sRrmEvvg7DXml7nXu5VVQfzLHWqzSp4dOLD7QAC5Nmohgt1rrhQKDQhOlbsZyI0Ah417C5A3VIsSWpM/10LRNNrnio7NRlrLeoljs9HZfXd8CyU02gJGlWEZMMaGpQNuylUBOuNCrJPY7D+9kriZpD4sxczj6rzT8JuyVqcoY+ojomm+Yw7AbJrffSbBZv/RXVUKCFGxKqAfdm91t4QO3xGWYqtBOABFVUG1Spzc4hr60egipdvEWrMhf6SFQnusxuz5tsAp3SZIfyX7gyvfcKafBoR32t04C1sNsmFBwznVIZHumuhIvCLpjpQsZ4f1zNhv07xNH5OC2LMVdqQoS1vxZnWFWY+ed7Ox2UvOqNhmNT6LylXiG7YhZJU5KEXXnZ2AhWLvzygRjJR6PkmL2K1gckTB3ejXZCjT3TFCA+0Q4FK2zEquPa2+OP98eDq72Sz7Y0792XL1vr7+PJ/fcZgURF17mvbU/SQvRj449qUSgkiA49PPDZmIecpbzuzkLWcaA8HOGUXLmdoBY4ta1vDy8emmz3SD2YQxhg7ZLWz/YCBjvFq/nvcsSzhgnXCM/b77/35Z65zlhBPsmzIhZNK6oR7hlN3TQgGUNOfb9ZLDwjBLPBukwWbr7YISfw8KhuhSu82dcnxcTjOEOI6F0iDg7azPcSnIxwkzw+jffva88UOe77UblYfZWibEUS0U8NDXM/tLRhAb+uxp7rynt1XrOTwrGdzoCbNdkXmyMjR5HBJ7hRloTwpzzrbBRuWBA+ZobRSF5uAz2POUK46twmppg/suAC42O1UtlMGzrvTBswhiNLvqKek5rgxIWRbK7/2hCbKH5815voXCOW9JXIhjWChAu+wrjSRFfIbS4MaTUsDRp67qyn9Agn1aFJz6nKO9yQG7bQdwtToolGSzy2p5ASvoNk7sTju2Krg0KsJWY4MjgyP3arP/KOCO3HPkDVWGDda03cHtsCsgv6rDZq+W/loiBGup7ArU93PaZYXYbD1ngWA/R55HmsJ+LujjvJ34xV6m5N7guIXij0iyGQ+0wyXZ0Gqx2bZlWInTGZtpB7NQyDTTKXx8Mt7C4OqsxlaHslDIW3U6wCF9AQIzCSxsK0lf51ooSj5c7XeVawkn2DdDqXvmGzcB0aeZ43EO6bmUWAGwBis9938/MrFnX31xaR2PGbpI6rndkmwo+awdZvO2D6HzCDgnWwWP7xLgdrFQKFls9IqHpE1wTMPgRl6y33s2uGwLxfy4TYt4lkrsibhriZD2xxtK6DE3yabph5GbjaDVsDpvq5OAZoOYOzI2hbSWn4oDjUUjFBNv+jHxZnaSzfDtuaafBjTbPAk7m+k0cCnhJQ0GW76DiBJiapdfE2M/z91BqXsR1s0k7MY1rs08Je6Ds+j5ejJGSNlBXgax24jMi4ifQ5/ngfOH5c8YZQc0qiA00MLD8iyimfAkfViGs9zM0bJqS0RGxlc4ea95EbMo9J+03L6wKqjcOJYT7lMQ7JgBmcSEhKwHUlRBoMTpR9XGsZSgfkFDvg7ymTAF2S3JtVBAdjZIVYQezZAjhy4kazia0jxwKuHb8slYRzJ96FLSA3hJ5Iazd66g/ZGbDVIFsXez6docnMxnaQ+gF9M7YRA5V+CpAvJ+ioOSrSgILRHkRx7ugv1mpoUyrCQCkEP6LY34OiSptA4ZIvctzUKhnycIDq1NEAKXjq0GYZb5ReSDuUrC6Cdyfo48ZIRg2RdJSbJpt1rW5tSmHOvb1nLo5KP1nBVehhhITj56FsrstBQ47q4BDfn06XCVPW+MqwwLZXxK4HB3dcGnmz/QyBvMmTZw3E5X4jLlWA1BLA6xhlxwpHeTb9Drj+ngfp/GagmxgW8/vB2aA+7uWmV3iftycLwswqDyXRyEmBnw/WVInLwyEcGxBfuqqbkE9PuQ4hCwAgvlpVrzC+La7PZhGuQLO9bir1tlbwfeWGkWCiCP3Sr7bvw0pZZFHIcIT7M1tdH2bLyLiwotUpQ4n3jflQXzOTEDT9YP2++L+ehj+uv1+p2nOu70uZ20xTQH0XxcqZki8k11ZBNPuN19DeBHFLIcRE+VDs19Sd/G5lzEnQ7I8KSU+Y6ENyQzDdg8yW2dKhmLzCiP+XMayrwYsQeaGcIanI4TfXfCM5IdwlJLOT5RssdleM75qsCrYfVHLynsKlxxK5lkQ3+dpBtMjfAkJw+FvP7Byg4NcpJsyFuldtheZGy19BCWWFXM0eZEwsU7EzvT4kk2wZFJJ1mFWr9WpxjMyidYswIwaUk21DHEYIAQ8sNiOuoiQ5wZE9Zt5RvcJDn7npw8FNCxvwLsO+FnaKPCk7OHz++L0eBuWB8Oe/PL78ev9xnTTwwh+1QBB2yh0bcAB8df9yNAiHtQs+VrRZMMp6+3/VOKoPPEh3QLRXMCzGCIoT07ha8WbTUt9XCgvWWe/6yMU1lg4ThkoUiqYjmtAcZ9ICrL4JUlKU3VCkpTNSxruN3op2GVop4fx/JUAUgecYXGB7VmkMecKQhi0vIDufYj86faKcSdedZp7iksc/WLAqtvT7xtUPghYJQdpW6+9qsfneyagvw0YGoz2eC4WlQE16b0ZVZ17+EbAtTSgK0ZWyYqB0iWH9+pT+lntV4mW30RIEuySZK56YNsjuQjrXW1thuSJtnI+mJRp7sWkQFksazSVyGSg6UOonimbLDzix2jySr2QslDhZ2n32vHrWRDRhl1d45M7EfLs1D2LrB0pnSI+Bjg1v6wPGSxq/AjTfO1ok0TfjddIY5XyQaQ82qSAPGEllDJhs4rSZUT55KPDq6ujfpVHLoe12MWisL5OV/mzCLV0RpWg1kF6NjQA8e3Bl7FKbvlnlayW25+i91y01aKMJqDCvoODTtCiOaxa+3RXvnzrjsoq9YeHZW+h0Wj0mrtaZdlu+fRXL3WnjK4ZK09h/GxZFslCi5U7KopO5ccnKeOMcaOMksZ2+3YKYcywMWSbI5Yaw+AchUCWpRZMFeaL39McLTMQoLktcxDr6inVGtPGVzWNRq8ZZaZiGsMyxyW9iOj8hwPEPu25ZEtFG+dItelrZii/kY5ForXz/V+WWuKqFxXkoXigqPphwIODW5VOjhAylJ2vHZy2Zcx0ERJ+2OB+/LnXGpfHP5GpZIS4NlnqpvhOHpOMG7L6Tp9Wo4PJcZYTuIVGoIKwFkPZeg6OI7H5466K/AZe2VYmHhFYhdaRutjuXdJRutMSRj9uyS9/VzAqPmM7RBjGWm47EnzhNhzJ84rOXRETjhI34l7725o9/KuO+hUFEGeQyhxi5w/LyGDs+d7QFXuK5CCgwc93oZGBwJ3PxOVHCBmaDylCuCkDgf2c8CFxstD2dtCOQuVKMWsDjItFLFOycYlHM8PuNB4lZiEhZJ9x0HG9Qqd1iTywdG9mXsPQ0d2phm/tw7Yc8aLFb/QskCsgEax8TRO6aUbkQsticQEYw/WAbU7GgGQn2STo8StdawT0GW6EgdetRkq2bPqU0up2LES2Zu5QIjC4KYxQxGyDAtluJzd/oxMAOivxLiEmB7wHLet5RLgdrdQ4h+bX42XtvyQBx1jwzjrEdBLgMO3hOxzliE6otFFOA3YjWC7qXsd/4rIUKsTK+rA/7iIBwDYsBF/pH3eazjvceYUYy+mmfA2GG+muYfRCZfhF8KxFRKioCqgcXFsiw4kNqvrcyAGxKPbXbB7lbDAIC+E+1ocHLsKP8vWZP/LGEjcDyly5eJKfPxCxQwNhk73+yqGg1eG2gvcKPysvZfbv6Q/jSc2i8KhMXAX/z0IcKEZBcePMRzijs7i4OzVMWS8wbyDSirDEgwTU25NEj6UNbq2f9RGYV4cu1fCuUGiODh2Fr6Ggz3QA1xoOY97DPAsUZ9qwNja/rEZ9Xr1o88ZvK7VHgsK+zFDA8Ne1cJU8ELLBDgxvKJVnx+YSFTK1GFOufc9VIExJZ/+w2L+7n8ZwygRCsbLmBIfQsjBXWV6hYwrntZKCtd2gmNAz6N37O5/XVQ7Gedm7xFwPDhgK/aUokG+bHf8CaJ0e42M8DuhF95/4RSmkxyljm2ZtbjhHM9Ol5i6xnuT+oyUV/tjv39ne/P0RyeBsXAcgb1SMPQreb7FpA3OFagaJ6Jlykxd1p+aDZfR4kXjYE7SJZ61nSMNhe1mfWHbRa4axf2Y3EWTbGTWPa8adObeJUR+xETI6RA0deK7o6KbVaFILLff9UfTXwP3slBCszhCDG2upkNK43sGOfMzcd6d4jdSeIO4yNrZI8KUeigFfCgJE8UjzHQGxyoBftyvu+/+KrpYdnmutlsbSt8e7ELLzNUbKq0PfFA64IruVR3zxhRrLW/LL7Rsp5UXj3tF/FbnY9+oBnrwnB1yh58CsS/ufzWFRYfuzXAhrf0utLTiNTR3FezGct9Ip0XBIVEs3uT+wqDmxCEutOyc79V1eBacQiiaC4BX/PIJBxz6oIe80DKxpdtJrvHQB1c4nqxvfXBi4T3ghZZgUdyViuEi8E8vCg4BWHOktcFBPACS8EayNgMQcRu3NFWozlSMsQWsr6KJMwKb9+7CGSr2cuK4DW8x2oqqWJ2YtHu50zfFxMK1RfjdRQ1Lved8ZuuGbYg062CvQMigUP4y6/es0Pj5Vh2VccfGGXEDthvUyy2YWyDKMy9w65exGdLwVFYNSMJZVNdzPeCA67/mlzouEp9b7Np3ED3T8CJMk3v6FNK3kfHL7+lxQxA35ADXRSXmnGZZYLd9JmZvtiQhbUtUU4TxahD5DEKBO0tbD6RdxhATVz3gDwhZPK4nu0CDaONMN//KbYm/IoX0ReQOZCcMF+uPw1koi+caYjvVLWD40wLRW6mVZ5zxZYU9TdAY+TPpCFdud3rPux3dxOh5SONXbl8qzjjb5qdhQ4Zda8cEZw/LxTtSVnQMvc+DQqo+ONV0MHSh9cIdN67vAK7AnOPH/y7OlAYmZMbZheya+x9FCw5daVq40DR6ocoXWnoGlU3O7PRtmaZvg2mBVRNiJL2HpWFk37XNUP+rxy9Kb0Tf3VbOyLf3M8AKLavsJixEYDEG0iaTbHbXc506pWT+eMNSKmpAzPTx+js+2t1PTBW3hBDakxUEzkTIRloJV27z9/LPN7hf95HB+AXwPizMDB1vrs9lt706AlwrGt7onAJ6HjDzm4ZKAufW4KCLl+vbSZ/fhm4YjI2X70/bjzqhNBWcqlGJfpOIz0bkMB/8QsukhRJOAwaUcAU9GCwWvZ73FTLWKdVzdaLYFaC+3QzFhatq19wXSLKRuZMCRv5RHEYQe3fE76R6aQebdOx3h7q5e2+pSltmjnMnGO3KB7O4c5ML4a+VxjqZDJgmRJmZsgG4NoilH7EUawCPe8IfceeNYR7JiQlxFAtlD3DNyB7eXoTOtnJsnj/Cz4fAg93BFbJQdk0D9i2UuyULIUPL14EmVXkQf1BHCG8Qi/BiPV9aF5wz351iV3x2OvWxIi23KlZBxsQjVs+PbNnIZl9z07SkuzrMPpxLWxqejxSJlDxlIYrGCtQO5NYlM9+rR2EPRjZ5cCrjvcpUHrb7zS3p7+6I0RfZRYgSz/J42v7BEOXt9dn6pUeIKHAnVed4vKBerSDn7/r6yJel7wtusOnaVtnyaTvXNOpGeeayalqs3/N2f06ko2bcJt5dmoVSzzmoJBgvZzfXL4t6pPb+oCZZTIxVh3pCOK4Ijm1HIQom2RSljmmazWbkJ2lpCvQccIlAB08n2Pl/K5hks0M/B4z2Jwahzar7iSWmCkSvBHh94cQS9DPq322sLG1FSjyYHLOkEmC1acgTKZZKtA5tlk/dQvHeHVbn/pC84QcwPHCU67juby294N8BLJTQaAsYdx6W9eiwHCT7DRuPzhs9cEsMefHQkJmkPiydeb57faz9GRtmskQRNCYXZjPEaL0auPZhFhOiZFUQ/sTaNBFGYQZPPw0J0RhgfTKgBYUo3UIJpvI2rrsxeh9Z0als3v63zjgKdmIWSgDuK1bQDRqz77gQ9KV7n3XObQdw5RjOLuNN1J6EDP4kheitBnsIAYItT7zYFW81/bJXoZ1M299tBIztOGOoPpbk3eZFNJ8PMnYNzETFrc6HtZcQlWxWtZ9IDAUy/HW3wzoV00enZaEMVuEhifXx612aEE0FIU7IQmloj6HYCWTdzZuzqctZpw4CLjHzD+vaI70NCtyrPERCqFLFrbZ0EY5Km3KhJf+3rNhVxy92FS97JWPMKaTVaBFw7VWx5sdc15f2jrWVZEwVIlJxK1+IMi2UtrYVNZ557EefPF0CAorvpE7LQqHke4n4hQ4IT9b3Ay0c8ZPNUJXD6idjofxa/g+x/mr9OR2ScAbRnw+uM3y9/vyeD3isiybXv1LBidmpIrOY0FFG+bIGKKXBu7MyHZNC5GkYiRAuOEeKki2UZirjH2+hKA2IP9JC+QfusObXXzrnQqtlirV4nM1qyrsPKUSFboa/R4n/A3d4cEcyyGOMh4+vKCfZJGtY2a2gPlao2BXwGcUjfCulyQppxRmbPmNDVnFLa8sqbrVTKm4F7+5IhGgHj5SwE4+On9313B478fh7sydHbBb9s1D27bni4P4PMYAmtPbfV6cAAAAASUVORK5CYII=;" vertex="1" parent="1">
          <mxGeometry x="366" y="244" width="28.82" height="30" as="geometry" />
        </mxCell>
        <mxCell id="8sV5FwSNkH7HSxSM9dJd-23" value="" style="shape=image;verticalLabelPosition=bottom;labelBackgroundColor=default;verticalAlign=top;aspect=fixed;imageAspect=0;image=data:image/png,iVBORw0KGgoAAAANSUhEUgAAANwAAADlCAMAAAAP8WnWAAAAvVBMVEXgI07////u7u7t7e339/f6+vrz8/P8/Pz09PTgIEzfAEDfAD7fAEHgHEru9fTu8vHfEEX5///eADrt4eTy+fjreo/iM1r+9vjt5uj85+vgJlLiTmzrw8v63uT51t3xpLPry9Hmjp/kZX3jP2LkboX/+Pr2xc7nmqj75erysLzs19vdADPtkKHleo7ps73ooq/kSWnnXXnquMHshpnkaIDmV3PdACry1dv1usXorLfqvcbvmqn3ytPyqrjwn64xLhbBAAAVaElEQVR4nO1deX+iPhOXeIaQA6WePWztYf310Fqf2m277/9lPSTcECCigrufnb+ydmDnS46ZzEwmNY0TsKne5q0ObzV4q1G3my3eavMWiDG2eKvpM3ZijLxV16KMHfvHumBs+u8OMcqEaCoI0UgVovYP3D9wJwuubpPDzlsuu03uezk5ovgtwdj0GTs+I4gxAp+x4zM2UxnbPmPDZ2zFGOv50rrgOEzgfwbgiAu8z9AE/icG/gcJGPknBo0oYxtEPjFoRxmDd0sZDyqEABcfP43o+IkPtND4qSfHj5SxVQ+Pn3p8oMkGcSCElBFER7tMiNLAZU/lf+AKgCu6RKjM/Nx1ilIae+SgQtTanFqcmrzV4a0GbzV4q8NbTfHngLG9E2Pw7ob/iMd4sf399fpraGn5QkjfmCNEQs8pzPxgiVAZPwFjVM/Z7378n84Y09HqMmu0h4TIWadOS4lfGrBmE+7e3P2FFso3qgli4wv33e3tQKi4v8FC+WIOOswuiRBi8B97XhBwGAulY1OryUm0GrzVaNnNoNURf27JGKOPpDN2JIxOaww9dPM2/7FnQKafDc0DCNEJ67mUJaKeUDH1rJkvZUyzUOrkyu26Gt6IN04NPkqNL+eNewlRuRKnI90FV0N8zbTccWrMPshfYKHMsAuOPXFw3j8xeqB/toXC333mgcPv9o/nyOvImjHp0T0tlEbFZK69Sdd9sRrmEvvg7DXml7nXu5VVQfzLHWqzSp4dOLD7QAC5Nmohgt1rrhQKDQhOlbsZyI0Ah417C5A3VIsSWpM/10LRNNrnio7NRlrLeoljs9HZfXd8CyU02gJGlWEZMMaGpQNuylUBOuNCrJPY7D+9kriZpD4sxczj6rzT8JuyVqcoY+ojomm+Yw7AbJrffSbBZv/RXVUKCFGxKqAfdm91t4QO3xGWYqtBOABFVUG1Spzc4hr60egipdvEWrMhf6SFQnusxuz5tsAp3SZIfyX7gyvfcKafBoR32t04C1sNsmFBwznVIZHumuhIvCLpjpQsZ4f1zNhv07xNH5OC2LMVdqQoS1vxZnWFWY+ed7Ox2UvOqNhmNT6LylXiG7YhZJU5KEXXnZ2AhWLvzygRjJR6PkmL2K1gckTB3ejXZCjT3TFCA+0Q4FK2zEquPa2+OP98eDq72Sz7Y0792XL1vr7+PJ/fcZgURF17mvbU/SQvRj449qUSgkiA49PPDZmIecpbzuzkLWcaA8HOGUXLmdoBY4ta1vDy8emmz3SD2YQxhg7ZLWz/YCBjvFq/nvcsSzhgnXCM/b77/35Z65zlhBPsmzIhZNK6oR7hlN3TQgGUNOfb9ZLDwjBLPBukwWbr7YISfw8KhuhSu82dcnxcTjOEOI6F0iDg7azPcSnIxwkzw+jffva88UOe77UblYfZWibEUS0U8NDXM/tLRhAb+uxp7rynt1XrOTwrGdzoCbNdkXmyMjR5HBJ7hRloTwpzzrbBRuWBA+ZobRSF5uAz2POUK46twmppg/suAC42O1UtlMGzrvTBswhiNLvqKek5rgxIWRbK7/2hCbKH5815voXCOW9JXIhjWChAu+wrjSRFfIbS4MaTUsDRp67qyn9Agn1aFJz6nKO9yQG7bQdwtToolGSzy2p5ASvoNk7sTju2Krg0KsJWY4MjgyP3arP/KOCO3HPkDVWGDda03cHtsCsgv6rDZq+W/loiBGup7ArU93PaZYXYbD1ngWA/R55HmsJ+LujjvJ34xV6m5N7guIXij0iyGQ+0wyXZ0Gqx2bZlWInTGZtpB7NQyDTTKXx8Mt7C4OqsxlaHslDIW3U6wCF9AQIzCSxsK0lf51ooSj5c7XeVawkn2DdDqXvmGzcB0aeZ43EO6bmUWAGwBis9938/MrFnX31xaR2PGbpI6rndkmwo+awdZvO2D6HzCDgnWwWP7xLgdrFQKFls9IqHpE1wTMPgRl6y33s2uGwLxfy4TYt4lkrsibhriZD2xxtK6DE3yabph5GbjaDVsDpvq5OAZoOYOzI2hbSWn4oDjUUjFBNv+jHxZnaSzfDtuaafBjTbPAk7m+k0cCnhJQ0GW76DiBJiapdfE2M/z91BqXsR1s0k7MY1rs08Je6Ds+j5ejJGSNlBXgax24jMi4ifQ5/ngfOH5c8YZQc0qiA00MLD8iyimfAkfViGs9zM0bJqS0RGxlc4ea95EbMo9J+03L6wKqjcOJYT7lMQ7JgBmcSEhKwHUlRBoMTpR9XGsZSgfkFDvg7ymTAF2S3JtVBAdjZIVYQezZAjhy4kazia0jxwKuHb8slYRzJ96FLSA3hJ5Iazd66g/ZGbDVIFsXez6docnMxnaQ+gF9M7YRA5V+CpAvJ+ioOSrSgILRHkRx7ugv1mpoUyrCQCkEP6LY34OiSptA4ZIvctzUKhnycIDq1NEAKXjq0GYZb5ReSDuUrC6Cdyfo48ZIRg2RdJSbJpt1rW5tSmHOvb1nLo5KP1nBVehhhITj56FsrstBQ47q4BDfn06XCVPW+MqwwLZXxK4HB3dcGnmz/QyBvMmTZw3E5X4jLlWA1BLA6xhlxwpHeTb9Drj+ngfp/GagmxgW8/vB2aA+7uWmV3iftycLwswqDyXRyEmBnw/WVInLwyEcGxBfuqqbkE9PuQ4hCwAgvlpVrzC+La7PZhGuQLO9bir1tlbwfeWGkWCiCP3Sr7bvw0pZZFHIcIT7M1tdH2bLyLiwotUpQ4n3jflQXzOTEDT9YP2++L+ehj+uv1+p2nOu70uZ20xTQH0XxcqZki8k11ZBNPuN19DeBHFLIcRE+VDs19Sd/G5lzEnQ7I8KSU+Y6ENyQzDdg8yW2dKhmLzCiP+XMayrwYsQeaGcIanI4TfXfCM5IdwlJLOT5RssdleM75qsCrYfVHLynsKlxxK5lkQ3+dpBtMjfAkJw+FvP7Byg4NcpJsyFuldtheZGy19BCWWFXM0eZEwsU7EzvT4kk2wZFJJ1mFWr9WpxjMyidYswIwaUk21DHEYIAQ8sNiOuoiQ5wZE9Zt5RvcJDn7npw8FNCxvwLsO+FnaKPCk7OHz++L0eBuWB8Oe/PL78ev9xnTTwwh+1QBB2yh0bcAB8df9yNAiHtQs+VrRZMMp6+3/VOKoPPEh3QLRXMCzGCIoT07ha8WbTUt9XCgvWWe/6yMU1lg4ThkoUiqYjmtAcZ9ICrL4JUlKU3VCkpTNSxruN3op2GVop4fx/JUAUgecYXGB7VmkMecKQhi0vIDufYj86faKcSdedZp7iksc/WLAqtvT7xtUPghYJQdpW6+9qsfneyagvw0YGoz2eC4WlQE16b0ZVZ17+EbAtTSgK0ZWyYqB0iWH9+pT+lntV4mW30RIEuySZK56YNsjuQjrXW1thuSJtnI+mJRp7sWkQFksazSVyGSg6UOonimbLDzix2jySr2QslDhZ2n32vHrWRDRhl1d45M7EfLs1D2LrB0pnSI+Bjg1v6wPGSxq/AjTfO1ok0TfjddIY5XyQaQ82qSAPGEllDJhs4rSZUT55KPDq6ujfpVHLoe12MWisL5OV/mzCLV0RpWg1kF6NjQA8e3Bl7FKbvlnlayW25+i91y01aKMJqDCvoODTtCiOaxa+3RXvnzrjsoq9YeHZW+h0Wj0mrtaZdlu+fRXL3WnjK4ZK09h/GxZFslCi5U7KopO5ccnKeOMcaOMksZ2+3YKYcywMWSbI5Yaw+AchUCWpRZMFeaL39McLTMQoLktcxDr6inVGtPGVzWNRq8ZZaZiGsMyxyW9iOj8hwPEPu25ZEtFG+dItelrZii/kY5ForXz/V+WWuKqFxXkoXigqPphwIODW5VOjhAylJ2vHZy2Zcx0ERJ+2OB+/LnXGpfHP5GpZIS4NlnqpvhOHpOMG7L6Tp9Wo4PJcZYTuIVGoIKwFkPZeg6OI7H5466K/AZe2VYmHhFYhdaRutjuXdJRutMSRj9uyS9/VzAqPmM7RBjGWm47EnzhNhzJ84rOXRETjhI34l7725o9/KuO+hUFEGeQyhxi5w/LyGDs+d7QFXuK5CCgwc93oZGBwJ3PxOVHCBmaDylCuCkDgf2c8CFxstD2dtCOQuVKMWsDjItFLFOycYlHM8PuNB4lZiEhZJ9x0HG9Qqd1iTywdG9mXsPQ0d2phm/tw7Yc8aLFb/QskCsgEax8TRO6aUbkQsticQEYw/WAbU7GgGQn2STo8StdawT0GW6EgdetRkq2bPqU0up2LES2Zu5QIjC4KYxQxGyDAtluJzd/oxMAOivxLiEmB7wHLet5RLgdrdQ4h+bX42XtvyQBx1jwzjrEdBLgMO3hOxzliE6otFFOA3YjWC7qXsd/4rIUKsTK+rA/7iIBwDYsBF/pH3eazjvceYUYy+mmfA2GG+muYfRCZfhF8KxFRKioCqgcXFsiw4kNqvrcyAGxKPbXbB7lbDAIC+E+1ocHLsKP8vWZP/LGEjcDyly5eJKfPxCxQwNhk73+yqGg1eG2gvcKPysvZfbv6Q/jSc2i8KhMXAX/z0IcKEZBcePMRzijs7i4OzVMWS8wbyDSirDEgwTU25NEj6UNbq2f9RGYV4cu1fCuUGiODh2Fr6Ggz3QA1xoOY97DPAsUZ9qwNja/rEZ9Xr1o88ZvK7VHgsK+zFDA8Ne1cJU8ELLBDgxvKJVnx+YSFTK1GFOufc9VIExJZ/+w2L+7n8ZwygRCsbLmBIfQsjBXWV6hYwrntZKCtd2gmNAz6N37O5/XVQ7Gedm7xFwPDhgK/aUokG+bHf8CaJ0e42M8DuhF95/4RSmkxyljm2ZtbjhHM9Ol5i6xnuT+oyUV/tjv39ne/P0RyeBsXAcgb1SMPQreb7FpA3OFagaJ6Jlykxd1p+aDZfR4kXjYE7SJZ61nSMNhe1mfWHbRa4axf2Y3EWTbGTWPa8adObeJUR+xETI6RA0deK7o6KbVaFILLff9UfTXwP3slBCszhCDG2upkNK43sGOfMzcd6d4jdSeIO4yNrZI8KUeigFfCgJE8UjzHQGxyoBftyvu+/+KrpYdnmutlsbSt8e7ELLzNUbKq0PfFA64IruVR3zxhRrLW/LL7Rsp5UXj3tF/FbnY9+oBnrwnB1yh58CsS/ufzWFRYfuzXAhrf0utLTiNTR3FezGct9Ip0XBIVEs3uT+wqDmxCEutOyc79V1eBacQiiaC4BX/PIJBxz6oIe80DKxpdtJrvHQB1c4nqxvfXBi4T3ghZZgUdyViuEi8E8vCg4BWHOktcFBPACS8EayNgMQcRu3NFWozlSMsQWsr6KJMwKb9+7CGSr2cuK4DW8x2oqqWJ2YtHu50zfFxMK1RfjdRQ1Lved8ZuuGbYg062CvQMigUP4y6/es0Pj5Vh2VccfGGXEDthvUyy2YWyDKMy9w65exGdLwVFYNSMJZVNdzPeCA67/mlzouEp9b7Np3ED3T8CJMk3v6FNK3kfHL7+lxQxA35ADXRSXmnGZZYLd9JmZvtiQhbUtUU4TxahD5DEKBO0tbD6RdxhATVz3gDwhZPK4nu0CDaONMN//KbYm/IoX0ReQOZCcMF+uPw1koi+caYjvVLWD40wLRW6mVZ5zxZYU9TdAY+TPpCFdud3rPux3dxOh5SONXbl8qzjjb5qdhQ4Zda8cEZw/LxTtSVnQMvc+DQqo+ONV0MHSh9cIdN67vAK7AnOPH/y7OlAYmZMbZheya+x9FCw5daVq40DR6ocoXWnoGlU3O7PRtmaZvg2mBVRNiJL2HpWFk37XNUP+rxy9Kb0Tf3VbOyLf3M8AKLavsJixEYDEG0iaTbHbXc506pWT+eMNSKmpAzPTx+js+2t1PTBW3hBDakxUEzkTIRloJV27z9/LPN7hf95HB+AXwPizMDB1vrs9lt706AlwrGt7onAJ6HjDzm4ZKAufW4KCLl+vbSZ/fhm4YjI2X70/bjzqhNBWcqlGJfpOIz0bkMB/8QsukhRJOAwaUcAU9GCwWvZ73FTLWKdVzdaLYFaC+3QzFhatq19wXSLKRuZMCRv5RHEYQe3fE76R6aQebdOx3h7q5e2+pSltmjnMnGO3KB7O4c5ML4a+VxjqZDJgmRJmZsgG4NoilH7EUawCPe8IfceeNYR7JiQlxFAtlD3DNyB7eXoTOtnJsnj/Cz4fAg93BFbJQdk0D9i2UuyULIUPL14EmVXkQf1BHCG8Qi/BiPV9aF5wz351iV3x2OvWxIi23KlZBxsQjVs+PbNnIZl9z07SkuzrMPpxLWxqejxSJlDxlIYrGCtQO5NYlM9+rR2EPRjZ5cCrjvcpUHrb7zS3p7+6I0RfZRYgSz/J42v7BEOXt9dn6pUeIKHAnVed4vKBerSDn7/r6yJel7wtusOnaVtnyaTvXNOpGeeayalqs3/N2f06ko2bcJt5dmoVSzzmoJBgvZzfXL4t6pPb+oCZZTIxVh3pCOK4Ijm1HIQom2RSljmmazWbkJ2lpCvQccIlAB08n2Pl/K5hks0M/B4z2Jwahzar7iSWmCkSvBHh94cQS9DPq322sLG1FSjyYHLOkEmC1acgTKZZKtA5tlk/dQvHeHVbn/pC84QcwPHCU67juby294N8BLJTQaAsYdx6W9eiwHCT7DRuPzhs9cEsMefHQkJmkPiydeb57faz9GRtmskQRNCYXZjPEaL0auPZhFhOiZFUQ/sTaNBFGYQZPPw0J0RhgfTKgBYUo3UIJpvI2rrsxeh9Z0als3v63zjgKdmIWSgDuK1bQDRqz77gQ9KV7n3XObQdw5RjOLuNN1J6EDP4kheitBnsIAYItT7zYFW81/bJXoZ1M299tBIztOGOoPpbk3eZFNJ8PMnYNzETFrc6HtZcQlWxWtZ9IDAUy/HW3wzoV00enZaEMVuEhifXx612aEE0FIU7IQmloj6HYCWTdzZuzqctZpw4CLjHzD+vaI70NCtyrPERCqFLFrbZ0EY5Km3KhJf+3rNhVxy92FS97JWPMKaTVaBFw7VWx5sdc15f2jrWVZEwVIlJxK1+IMi2UtrYVNZ557EefPF0CAorvpE7LQqHke4n4hQ4IT9b3Ay0c8ZPNUJXD6idjofxa/g+x/mr9OR2ScAbRnw+uM3y9/vyeD3isiybXv1LBidmpIrOY0FFG+bIGKKXBu7MyHZNC5GkYiRAuOEeKki2UZirjH2+hKA2IP9JC+QfusObXXzrnQqtlirV4nM1qyrsPKUSFboa/R4n/A3d4cEcyyGOMh4+vKCfZJGtY2a2gPlao2BXwGcUjfCulyQppxRmbPmNDVnFLa8sqbrVTKm4F7+5IhGgHj5SwE4+On9313B478fh7sydHbBb9s1D27bni4P4PMYAmtPbfV6cAAAAASUVORK5CYII=;" vertex="1" parent="1">
          <mxGeometry x="366" y="124" width="28.82" height="30" as="geometry" />
        </mxCell>
        <mxCell id="8sV5FwSNkH7HSxSM9dJd-24" value="" style="shape=image;verticalLabelPosition=bottom;labelBackgroundColor=default;verticalAlign=top;aspect=fixed;imageAspect=0;image=data:image/png,iVBORw0KGgoAAAANSUhEUgAAAOEAAADhCAMAAAAJbSJIAAAAvVBMVEX////u7u4AzP/t7e0Ay//39/f5+fn09PQAyf/8/Pzx8fH/8uz///3w7u707+0Azv//+fb/8+v78u4w0P/a9v2l5v//9/NL1/7a6vF/4fz4/v+L4vu97vzs+v3//vnO8/533f3M7POv6Pjk8PFa1fxe3P5F0f0k0/6Z5Pmm5veG3//Q9P3Q6fJ32Pq17f7w/P6a3PW25fXe8fPS7PLA6vSu4vaU3fhr2/+k6/1o3vy37vx92Pnl+v+/5PPG8v7UIEPWAAAc80lEQVR4nO1daXvaPLNmEYmDbBlkgsO+mDVpSFkamj40//9nvV7QaLwLAmnOuaIPvRphj3VbsmYfFQqi3RaPrQpdoqdcga6y6LoTPTfQ9SVJFQuXo/WN8BvhN8JvhN8Iv9SwroSwfGyIluhCtERDtET7oqRuRavciAZd0FOJd2Xd96VIyTm/EfDv4mulcuwqyzmviq7b+Fr5UqROQ4hWdVX0nDmsTyP1jfAb4TfCf0/qwwjP3QBzEBpB+6cIj12sCV3c+Bgp9LIoZY7bKO1/mFShKtrN3bHdQJfouavEu279P5vFh0XLttxmT1vrh2qTnU3KbbfuH7reOyynLknTbZb91j209TNJBU1CPUc+OnTmBDXTfly9nEnKazcG5eNn2yNVChohmjnZMX4JAfB0GVdv2HIoMCAyfX9pshNJHdvd36kWJekS1eZ/KfsXusWwFB3LEeWsY3B2OsJ2dxZDdyRZGjrssxHShpU8Gh8jedz4GE9AWFtZWirFErG2n4yQjtIB+iMyOw411BGmzx9AHHwqQuaYmePxMf7kXBXh0yRj/gS9xiciZNtcgN6Y5t1mLilvPWymufj8WTx8GkKDz9CIgs3PLCVsguZzL3858GV8wfu0XH4YIkmmH0WozMToQj7Y3cpff43ctv71OI+BJKWunkmqTB9sLQpPI/PH1ftT7zBYDfFiIctMUmn8UEAtSlELuuD6Cp5f/YAAzscV/dgKbNSZRDkIsavMSCelr8woRzUnf17anDFWNRjnNx15ATEdlkoqaBeSS4fymROHInHZHdGPaVQImI/q5TRSL4/hN+KuiPuGXggJ8a5cAT8P6en6wBkIn0x4YqduRHQLo8474WlxmSNnyaQapejbWCFSYlTtCVxlbtln6BYwhWTvaRNR7cmgDxFph+wdHidlFFbh6Sal5UuY1HFUhzk8sUM/AWEbhhR8FnH9kPd7w9D+T6yRHiXFeCuC72e1GSMVjGoLm5HpLpqrI5Qb6ZqGaeFhDSbh8a8ipOh2FnoHpYnDjTRlWt/DJK5TFvwFEcLTiOVEaIWGddMJT2MnRIqGhSJijinLMBfAp+9+GFdHeICHLXgWwkJhE+J02hsiRdfhL3VY5JmkYLMhc+dkhMAZEcKY8lgRPcXCD1gwZcPvuk0l9bII8etJ70iqyNehH0oLxnJIdcXLIj9Y0qgAoehCCCuntZrYH8i0ln/xDgtkxOoFtzRf8eQSe9DPfy5cvch/bLhJqGpSG7XEo+6PPVkOo9vKNARxRD1Sj6FPcMhhn00nxQTbJ/aVrRh6Fdj9O9CKfbaIlD5E80XMDa0UFrhHc1eogv+QvsL+dmXdQt8JhFZbCWGhgCVPYo5qIcjzLVXykLKduMVsGNdFuIYVp0dppTluB+hjJNYeL9vZhiYOK45wCzcNWGxUF0X4U6yWt/xhCVK98M4p/2tznjysGCnDASa1ujJCIZQCB1dxvvf2Ie4n2n+BkVzJj492OPpJCJcnICy8zOIQSYsaacNKQAib6QcQir4shG3xIK0Ro1XOINV/jkFc1NOHFSclEQ75BecQZCCgdScRwk5TjNFKIMUjEMlYF3uiVNozSNFhDCEaVTGL1GlSm+S8D0ZMPsom1cEAzWXdkC8yLmrFSUlZKj6qbKkNVqKS5I0RHrtU/Yf3eBItV7WUwyoqkAKE+5iqeVHd4myE+iBkUiPWrZSglRAuQGwTosbXQkhXURvc5ESEra+NkCcYyYdnIvySqzTRzUFa5yEcfkGEhpPA8D1V7ysi5GCleeAxWikIjTpSEgmezR8nILTPRngaP+RSauOK/NCg0kZe0jp9NJ9a4LhR4ofiLZGfCKESP8wKY4BYhwp0SYR6erxFOLhigRbm5LbWAPuuZ1fiOaEbghQXKhi5b8ZHlRVQIqEKCbCspj3BPpEhTPqkBmiJzphRKfSkBuXqT2pyqcFAt7i29rQUD5rGaCXrFgep/5KZwzxST6jLlTKVNGDQD0t/rowQdPyZGsIX5DkyXY3eJ7VD8s24roRwJK43r63jw5MUrRjYuL/jghRysZo7FUsUQ/ahamxUF0UIq8U8KCBsruRsBTbyIynkgjSxNTGNFBffv/tm46O6qB8frAmlQZRWHCEHC5m3NXFEqi1ZJJmCoJlhTYQdbnbtSAUq2Bl4kzK3B7Rr1hkmVUM/LfIXvOTD049EKhyvwjbvOMI34EsZw/K7yhSvRXcbDZF6l9NbauSSYoKJuqJewqgyEZ6YvdAEPW2ffl/Q1VxqEuCmGSHVH0v4VqOWTer2VnpmaifmYpzse2qAn4vliFrS318yx7Cb1BjjnFHG6lLpJxOaI7WB/mw+SOvHVawYyH+oFQPtIk1cvkN8fb5b3Yv28+cvv63H8g2UFnXOjQzJuyPdslf3kPZAyN/FPKSGOz+M8mrv0GisIm7uWCuFfl6Mfzw8OG0x1RGE0kz7CT5gXZgFSSeKkNLNZvn6334yN4mWHWoYa36IsTV5fux0G7d6gXLDQKNqww7+3/URgvePzAIG59M6NN5Xb3OiaQnzcyJOzSUyf/s12jruymVRP/7y+pEK0uFsbRhz1+Sts2rtLesjwJKQlkxr3/qzDThCV5DW2Ccg7MO2tuXbX69TU7souBBMopnT++5BFxtNyaSfEE9TAA3WthJCLi+Ps2Ta8Mf0jJioU/mhtAklB7JfBSX85xdNG9URYQI/hKYWqeB+eD9PRRbnFGfvR6vkUcGcfDxSoT0azsz8gaBmegk11tS27be3FrSp2zHzfjiNWMmcDQ+uQGSER3Ux3ULvvs5z+Fx0bn4/HSo+F6e0Tv1WE8R1/09nu+1k3J/wAG3+umOec/XSCO8aLW9jyQTnTthk30J2i04iKRiWl53GWBVJP63hZGJ58d2ZDypZrYcqvyRCo1b4M0l/arCtz1v3g6eDXujJAFvrNkYqYVi8ISm16pQ729GiNc9mQqRkd+Vy+ChCxp2OlpYv4Atb+8flxl2F/j1Iey9tlbIRyvoabtHG1DMdeqQqvx/3Ps7UB3cOMTH2HIScb6bp+TGW9bZ+cFx52/34g11LjpYMqWpGCSxsV3fwdpHjBtjuHbpv6TsbsaaNDyPkdLfP4HueOaoGMUreLT35/BlTTjjrwTsk03oRyxpNWt8lPzuYyP3TCQjj/JDx7TQJn+x6j3CeOxk5Q0ZMPWlQ2uTImpdDkXtcxpUnDmX6pOuZ/DDDJtCsJiXgucL/FP7/2Azd13yXAB/7J5R6aMpg9VklYj8BE808lu8YYBw2+mdUjSiXebUTp0c0a/hHlyr3nJVDGrC80H4pZIq4YVGLbVCKQyGkAY/ARDOus+VzQg6fu+e0gdTxvnzJm/FdzK3pArbf/f0LzCbaiCGEvCOnsAukkhFGxGUuzeBekhpCCGKwuXWZJ3V2dny5arOBJOW3XIScDaPvimj2wgk4QqEHK6eDcmaYIy8eypelhNCgcj/dY4QQMEZsf/gG1w8LOz64YfsUhAZdRxkEMYcjlyeIYUlFvyppcZTc0ktFaCQiRBGkJa2LNscBjOCVS1KDt2hkALGeTkDoLpmIGckcbvxISTGsd9j7fkhaYznGlVwOEYS1et2VUI0YwiIFUcH9hqU0ACHTWpEhUnrjZ2SxEnPcV0Sos0k4YU6z7rkICBQXSf4Fcotuys52HOHN4L4117w2n96PXCEhgpBVYT/VOuJxxg1YaOb16MtaRBaaNnnh4oGZCHsRO2Bp2avFlpZ84YDwt+RpwkwvEDLeW8xAnvYkvdnCiSAssrEk4BydhAxcjUSgRsvBWUYSrGwnHj8RR3gIvRlSarWTtgdgfFpX3CfvAZXiiLC+GcYz98lQvAexxdclU2zRwF8BsR/uThpb8BWDsk4IIzGdYBYzqkboIYCkNNkk12eQFsxhELKgS9Fj3gvFCzD+mCj4EbNzp4eiEUaSKf7gfpcMfp40o0PwRsWam1BSJ7EeeHbVCObM8fXmmLNkUYsC65s73t8cnMMlbdkMCYAv02geLFw53XIsaunSBGRHVr4GMckxAfBvKIx8Hnhu06wY6Gv32pAdN+i4uMxAqSMLT+HhNhpcSIh/z9BmiecakAhrhpxEP4FYh+GYGUJ8e4hJzl8ChNHv6ogQhZyT0m/GimkIixAtTGYuQi59ZaVBCOEg0yTnrRIkLtMl/DDztuMn+HOYpWre4QQrsr9LQ1gu1lE6C7Hes9XWe7kHMBnv5kszCOF7js2RlHYcKQRccozfbscr3LzOrItBcYKVtkhFyOSX7q61So5SB5ogeeT8l5RmDgghe8m1GRJSRJEKfA39sx4yiFg5yjTbSOuQP4REhIwiG5Ifp5qJELHEYl1+Py0dIeTTPICeeIDm0JCSH1kWxogZ5ijTzECD36cg5Ijj2um0ACG4S8gCeay9skcCYb2TtovipuHkFLaROb86oDUfcs0FTO513sabiLCKrCVtBYQyi3w+A4B+/IKIxdio2XtNHKlQl6N4g1i2Z54ZbeePihWlKcRuJyFsou3w6Ugr2/SwiC3BYAcUBhE+zF+j/l1DQOjpwhCxI+dkp2IQkZFhrrJck/xQQC324eVpy6MImF2fgTkxANrYZ6BHAbCn6pkQYqgvaklXGvw81/NrWXh3gnxAbMlcACGrwM/zo/iaVzesbpPoUHyPghBx43OchnCB3MnIXCd+9pa+ijItBQQNJccCQrlIfyghdHfKv9GhrIORRpzv+QhnaA5l4IVo/neqZC6AWFYN8v8RQqS2K9AKjCsRPcuiOLxgoO5XMkcGQngI3xh8pkoI7yCr/TGOEHZSEWOhgnAZ4gbm+CjGBgjvVaewJFLuhMoTridROigjlEbACYQDAkJQKshIGSFjIU3EPk7+EWHrBITTEMKDFfqtoI5QWFeIDdWNBEKZhqrdMhVaPhr+ilBoS/H9BgjnJyAMTBQCYWg7DeySiggfIFDkAH1xhC9KtALTnhMaZbgypIo8A28nhLDQRqqC1T8BIUT4mRLhkS8WJcIbFlMeU2MCcIDlioqrzkHo3SdND3KFi8yavPiJ43wlIBTFFeA71A4n1GWoAY8hs+hPJyEMP7MmxRPTOaFCRE1UsiHzXqxqhIzIW8g3ki21eU0yfXMn14p3Qf0khP59YHrAWs6CS4NI3qi4zFKEq+AiGZG3h6qoYpmne8xRpK8wrRSOkvdJCM0jwoA4UjDc7zCwkyq5IuuQlvUsLK5I8pYy1pM6QlzEQxOVMo4IT9pLQwhpKH8/iPJUQci2KMIvjrABculeGeFLaJh7wWV9hFRB+4VbWxgh/xH6baKMEKawpG0SEDZBvdKUazCG1SMiJjFAeJJMgxHSsDAYFNxSQEihYpbLYsRVGCEsU0i1zUPYCzsOiK0jhMboBLl0gBAiPS8g69WhU0BoSFsvWdSSdHxH6sjPagiX0VkaIIRFdoJu0UYI+T5yn19yKx9hXZp4rEOynUbuNcfvIg9hdC8R22mQJMFP0A8LEiHfRjdh8krzERp1KSVoi2Q7jVFFeSwdb8ElVI2A5X1XiKTY+7etdDmHRtwGkIbwKCb7pR5odAoDeTCzloV3G5of80VPqRoho328+CsjR2qTpS5kceoZk1JbdCNKBzg8Ztz6UptUK+WcPJ0Q9eor4qmRCmhIZOLgumGxOa8i5mPLL+AXRY66hqKtTWzt3rCkJYLYYGsb5knebVRYxNuZUhHizZFMiplZ09L7RBZPuLAhcrYq2ktFHRdvWH/gFo3BC3fl6CyEFDt1iVU0MjykB2SFJ6VuO0oLI5SrqY3s3y2OQwKUbN5QjuUW1+ohnTpyAGcgZBxX8COlSL3KqA84VBMWRM0EhDK30KvjABETXtUSFBJQzPdbaG2GEErd13pgUK+YWOkIOQvVhDPHkXqVMS93N+xSHd+lIGzKb9ZVwvvSAzysozl030Oe7+kdB1BIMVBb0CJy+DylIORsGa6zFRTkzPTjd0N3ELuRskphn7G8PxFnGDEcuDLO9h96QgJCCJI8mTNsQiCviQgZ/xGy2RJzzYu5CCOlYYknUCcgRH4h/285tj3FwUd8l+UD9vURyeAacGlgJAbeSOZ3cetRrR524rtjHQulKTPfQo9UIiGa/YPyKD+Uu1dgL5ARDtoYHbvhaqXFDD9+EKolhtBEQUPMq9LEdpIoj/HDQST4i5gHiCDIrhqhNyISJTH3jSBsQtRnQMzwOQh+wIJ7uACFftdJLOFOzA4PH/gB/rqSNggeJwuXTkSVimAIvDmKhvaS2bapXjWiFQ1/0faBQBZcVJaqEdmJ5YPrGZclKa81EuNpNgEfBD9+W4r+b4JPwd5qQfm0YplRPo5Wqicun2KnREF3Y14X95UfdFGCDAX39I9dFDlYjyFoSJh0YjFRPS7iIMSwpHxAwFJ2gM8dPBGcP3TMeGX0LjVOi/N+iZYe9za+/YpR71tmVWkQ6IORRKIWNdVwQDUb3U+PcW2t+0E7HpyNgqpkxbKmjGsTMz3exxY9IdNqSgnGrEj2gR3HSLTp2OEcSWwD2MZR3oR25EohlcegtF6vpyZJIIHUkvc14XPQdK/g/Woaz08gZDaKLHjFWP12NPgvmEhrsizCBjB7QUn0LTRGFkPoNyPVqPUHcQoKF1XAU05+t39PrKTAc2vBogteNRuBOp0kit55OeL/HVwmoCLjL1s0GWGqyQfda1OZkX4rwznMpCQat6fT1hWzEeIIiwZ3WpmHdZBGqBCCrMpGuvw0hEhx26FM2Fu6znq+Zg1f4sshDSHmFsdhuTyXPizM9CNEzMVTn1JueJUcymHlrlrOKUARGtZf+W5CeaLNccytj+bPvO8lvKwIwtyqEZVm7beVntXlbo3D9chp1mqV2s0NSpl5bOYUoMDPa8s1Or+t3d72+/3aYbAepuc9eSLz8qZ2qaoRvb9TM+NRxM/K+1MuMmwtOag6jKplhlxYXb3dbndb+4mVkaTn/tB6qnAjTioutcEHkpnpzOn2Z2LGikTpzqZpD6XL1DMRKmYj0LWkZP4a2vPsLFr3UfZ94+K53MwTJaz0mRRA0R+LQ69YdUUEzjnDlT/8xoMjL9wJ6zlOKC45O4vUWzCdQzvtZX0AodsYdbadjG0nNhhzPrf3//33+LhYLFbdP0+D98Phabvdec3tWjw+Pv432c9NZeO4lyPbGfRCo7okwqJ3sEih3bHyhwIjgqbJdnZON7E7mzq9bt1En9ZEfUyXbWRJP+WcGanrfqjKhyoq9AyyVz0r6GMIZSbScrmfZSd4fxieKwW3lhAH5IVrfULVCGB5mqtkVJ3dwja1S1f/OHKf+WLgZQOCwdncGlevGoGiCI7W1JqrFFW3i//2dukSOP1VadrPnd9PnqJVcSEZdfGjdv2qEYWyQeGrWB1peeFfnLJqo/G3ZdteIYizcAanydl2a/fgvNzhUYHD3FeNk0Ylui5xdh6TWavvYVrHt1XrPXXXrxEWrlL8437V3TpV6gnykYp0XMrln4BQhqzMeokIC76Qh6sGdoat1sRtM69NZpOgDfetYQelP9x78o5hREgFDnOw7HmK/tURgpF2oqchvC2zolSdLe9NUO4Kb4xVq5V2reaftKdzXpfpPGSqZ1QVBLFOG1wfoYzS7ERohYaF89BK7WRSFKXo+Gm1qQil7btzdYQohvE9C2HI67y/SyKFw2aCqOVUhFzWK08kdUmEHE600m4zERp1aTjXFonHDslAB22YRQoljnlp/ucjVOKHXESYiKyT1EOaDHn4Tan0TmOkcIGJSTuTVJkZyBt8Kj88sZJkH1jTvpZ6X9DV/ytt2NbmLkIKH9xlbmrZpG4qYFN8aObaXdSqRoTXCir1ABLNYyzjthwlheJg7bDDvExRtBH5S/NIyRP7lvHDIkNS27HrA5I3KIdjFECRghBFn0Lmz1GZdhAnHCoUsL+HzRRZi6+hW1QhJdDcKSBEh3eLRF6fFEN2C2ILF40SwtmVETIZkrBVQKiP0FpcAynG0OSSA4sPK0bqj7jeujZCsGqbjpGP8K4uQ2yPB2t7pPBZAqWV0tkIkEdjVq98+gMgtOIe8wSEqGSAVy44IMVbchv1WL0Kwhfx/Zub6yKUp/TZaghZEafevnikKD4sYZ88rBgpHRDGj6W9JEJ0vsWbKFORjbDMURwKmfVdvQNFVwaViBK2+DgpkJDWmQgTuEXW0RC4PkPQmlIEFlUcEo7DCJFqrtCUPd7VcOiwdYgdh5FCSgc+PIaQhXgtiyRSEqqS1AbnruGT5VJELSCFs/w7tzhzfsfzTA+ClDyV7B7CTq5T+xIya7qSVmxRR0lhBxl2RwbxPWpn54F2ceXTAdugO2WenRcllWhDDiLUFRFKif+iZ+ddDGEhKSBgf8r5h1J/+qIIezGIwcHs/3/msDCKhAMQqweheEoI/351hHQUAZgZQPF/cQ6LdXxQAJkdMod1pe9QiR8mIczjh17D6oTbrJUiExOkMMIT+aGAWpSiFnTF6jMY8qyQv3G1NYMUPUQYBhlLLShBmIyR0n8DQim1xZfKJc/Og8RthdMBXeE0loxoylRVqHCgdHbeq4rkfYlzSBfKZ+e5M+gk8UOAqHR2Hpxv8/PK+iFI3lM17cm/aZSYThrkVqkihM94fGWEj6cjpNuUc7m1SV8dofVJCBmEe1pcxYrhxeEscEaLiQ0YZHJQRSiLYm2vjFBGH6pYolwdv47LYxCy6v9Ekftk3lNECElipnNlhI2TrIl33MFskJiHQoXuQllKazWE4s2eYU0EzqgYqQAZcz+ProisozX1kDjqFbnz7DS/Qp2tAlSpyCCFvv+kUQHCOKlCVhGGpLoMsqzvTe61N6FatsTcBrUhal3crdkbhTIV4LcYn1DTwm8S6om+J3FMaqqoVQyv0OAEyyOpp1ConikPqUuR2mSh1jN8T5KWWMLZ/kM4ajGUnhz+bAP/4TJc6nXq5wUeSYUhCjkl3QcMVhrrcHUvt6y2ZB3CtPCLL9Y3kWynYT10sEg7JKeSIM89DaF0c3j1n66NkMsktU4qQs4iE0gWwmQhSN0Nwxe8HdIRyvQOT6W5NkLmyLnppSDsr8PVpIk1iCt1+jKcBWjet2vJCGWGzqfE0+DkH985HUOoN/aRStt2L/GT7s7D0zjfMZYQT2PIY1r8ZXN1hEwGZZPndhzhYRhJXySPLykL3pmHp5rYuzqNICwbdZn373/65yMEL2g2QlyHzrNGhBD2BvNo1pw1SCXFY8XftflrlXKMkCKe41eXvegcJtdn4F0kdVnLGy/WyT9jrj1oxRIz3BWqp5My6CiiORIyG/6pcl20yhh5i82XdFJBkwih64z40nDpBVdbuF+9d7ur+2k8/YOYvyjLJFVod2Kpktp8/3M9chxnu3vFS+J4nnsqqcJlTun0Wi/CCgj8GxnrfsOjW0dCOceEgzSIF4hplkLJD2RYzyN1qUh2rzpHktIeaZo51pXK990mHIYSb0E1iM9CWBgo1Hhe6Mo5M9th7isjoj7IJyEMV5dIGE9pOlAl5RWCobtZTjaONYqdjXBdhIVdBkRxDNMp58zwdexolRDAHlUldSmETWeSXA+CEKsTPd9CZVic7fYpaVWkNDyJ1GUQVhkfxXKgvBwC+5fTP5FU8LfBm437BI7jco+G8iedgPAcfujTKpc53z37R9wBuvnz0hVJziAFTExvdPYyT8an2Xk6jxQMIiOMAWIdKilBErp+6Lam/mGUlv22bhxcKeRMUiJ047bJHkYd2/Zpzqatv0V+eyapzKoRQYMVnCUB9in3UgwppR8mdRQmg9MB+/2aK+81+YdIFc/RLdKGleM/PGlYIXPBx0hdDmGeh/RfkfpG+I3wG+G/J5VXNeLMYX0hUgpVI9RzMb4mqY9IbVH56GuSOl/yFj0KkQr/lNQ3wm+E3wj/PalvhN8Ivz7C/wHs49i+HEbtlAAAAABJRU5ErkJggg==;" vertex="1" parent="1">
          <mxGeometry x="170" y="246" width="26" height="26" as="geometry" />
        </mxCell>
        <mxCell id="8sV5FwSNkH7HSxSM9dJd-29" value="" style="shape=image;verticalLabelPosition=bottom;labelBackgroundColor=default;verticalAlign=top;aspect=fixed;imageAspect=0;image=data:image/png,iVBORw0KGgoAAAANSUhEUgAAAOEAAADhCAMAAAAJbSJIAAAAnFBMVEX///8zZ5Hv7+/u7u719fXy8vL5+fn8/PwxZpArYo4uZI8AUIMbWYgmX4wATIAGUIIUVobp7vJwjqtSd5rz9vjd5ewASX9HdJoXWIi4ydjK1+H6+feascRCbpXi6O3S3OTCz9ucq72Rp72kuMpykKxeg6Suvs2Dn7hYf6GNo7rR1tzH0Nm8y9gARX2GnLO2wc1/lK0AOXZif59zjakpVduOAAAgAElEQVR4nO19iXaruNIu2MxIRmAIGAw4nh17J/l3v/+73aoSYDxhnDi7e9911Ous06FNUZ+GmlQqKUrdtEHV9OZR/WRoNI+G9SOzfmI0j/6TpAbK82j9D+H/EP4P4f8Q/mcRDitSoWGETTNC829FODgnpSlZ5qeTRcD4SYtf19GzEQ6r1qJVP2rRqn6jHV/MskzT8addpLIwLKrmwxghJ5qmZYa/32xVmzFmO6fN5oznwSLy9Uzvy9WwjbBu+B3ZjKZ1PzKJSjRZLObUFov1JNUzInv1PXg+m76vYs6o2ep2vPrnc76YRMUi4AKwqTeawxPPCtamYpr3uDp/cnx0ZczNy2knx1z2ZJEuAvEy8oSQHCee57mjkacuNx+ln2V6m5SeheU8f/EYd2ocloUjZDMBbwm7BQeGreoEbh9RW7Y3Uvc+cDUcXuUKnhxnol4/as2xBxAOdHM4CVTg4Eqv47RKeL5cRKHRzBWl2Ixh1Kxbg1QPFROMq3G8WgXL+XSzWa3iXM5c+QNbqPPQ1G9w1V5rev3kSwgzMw2Yx2t2cSxsm5aP1WJWCHu59uVr5dJNnHooOE8ENRApVkPEZp5wlq/rstCy7MiVqYH0ed0mXjXKFhPvhfKjCIdaONuKCp4NOLiax9sVtO3vGDoZ+K6HyrFBRmzeinLJ5O9hOfH893Kzma4nk8Ni/vk7zmHUbCCjrjYHPTRNXddPptZwoOsghwbldGtLkBbjyyL7QYRKuaq+xL0XdTNLI5CJtLBNJSyi/Wy9zN2Rx6rxhGXGoROIM5cvYYE2tED0ZqFf7qe5tUkLYqtaYYM2QtlgWKMPZ1RRctbKTyE0w90L4eNe/j6jX9aKqtXxhn/YrWwYnOMSgxW0i/DH52zp+nGxNmwdHw1PuPKXnGHPOa4TGT+DMBrTF3iyagbjCi3QkllYvG1yXgkXR8Rr3wDteKfjoZlg0AyjcgLtUBY6WDWmph/FcrGzaRy5vTY7SX0R4Yxx6sFVeXyvlstthCTQdSWLFksBIknkByMb0BQ8IgQhkp2zFb3uPseq7boeiSLPdZm93S3KMMsaPP6O5qrjBV12yzVtodcNVLlsRvNI/q0shIOrIJ4pWv0I6Yd+UURgovihfHAkBSpaXwfqnCQINhzb4m2/nkJbfMyKIkTJWX9Q0xexy9siWbVQ+TB1PC2BdPVNkAQomNmqUK4zSqTqLzaPjlBvWW3m4gU+7bzswmqcNMUs1++fy7EKGpqzXM2D4H06KbU2KR2sTeCgngTvY85FZSOAHLa3nwuUMoPa1DIWLrumKBMRTH1iTacf4TAyx9cesdqObNVDfmrjKosXnP9OVA15Fh42zAVxwqs+JxsFLJuRm9cyU6vnCpIyZ0uUsSesW8C76+ZzmIdaxZa5Sfg1cwBMmqCE2UdcRTEj8ZVmg69Y3lcRajMBQPi2qB4V8/iqSSOVOmP5cq2bmX4ktR4n/IZNAz+Pp75ZS9UyFtd/yNkyMuQMMbaM5M0sexZCLUoQ4DiUD8JXT9y0kyVMLkbjeVpBNNPc6/y9LdxV2nxvd4s4E/OKA2U+wjXjzrLhcxCGW5g6PK5GMLWTOyam7PNfM43kmb9MuvuDuoRty5qxmXN1ppKcqztigSPt2Kn2FITZFCdFUimJafd4NE3M8ZPDLFJZnw5RuVhKLWsYxVjc+pG7riGSYEgi7QkINR/F6CjNkFa49XrhqwAOsrVn3/+xbOzXNCS2svDTu9Ur7riyNg7Ila0WV0ygRxGaSxhCtlQw9GAsk37c2nmIpLKZ6A0QmjeOJFvG/ObAc3VGM0uZ48xiwcMIL/XhDKaMHYe0pv/pCdDhpL+ywx2RdMH+aE1e7tCcjm5BdNgCEQ7NHc5l8XFE2KUPa6jHEJHZoEcx481ogUx7TlFVLEwkVfJHRlCyv63k5fqG1kAZujbQPjeXwJlth/r5rHvMLtXLBIeQuiW9JQDOGw80IpXfEIpdjY0rVhfuzW4Qa/KTQ3T/xSIbns3EGmG/KIYZAJeMpn7Yl2HH9ckhWF2xwe43fpTaNz9Ac0pRJtDlTu6fr7WHxlD3YcnbuZw3fRlmKEeHyseXAGLwoIK4vdmjMDepz2MYRFZbFl9DaE6hmwQpIfOGnXbRZK/qYU/FeQ2iVOyD8U2IfEXrZgHc8WUlRb+GUFtxsJBJBa37rkJYGfjm+xeHECEKGkUtsm5KKo96PRxhAPJbCAs0SD/lnOk5JFbi4yeivh1yrXHq1CHYCzd/oRJT4K44nq5/HaGGa9mb4IOy9yqc4rvm6gtytA0gRAWnzG/20y9iFb8yKrX7CBvN2EJIinKDFOjhtC9CHulgMJT9rNGbjcFCw52Rmx01oomM/HkHslPaUYyqtRAaN5oClp/D8D8rt5fEGcAVUXv/1hBC83ZIx/TdG4vDW5vAFfa7NzFv8X8E0rRzqw1sJ2AZ/vRHPTkTBxIBNy2S3o1JN+KWzmGg6YfmgqFkO5uID0UxwEfhUxCN2aSvwcZJ8C6+I2dkcxLpRdyYp2wOvOofYHGxXYWwFiaP+BYFjJyYGSj7e846/k6kx48apNdIBZKH69Y7e0eEKSDk30FYgm3IS/jTCHrqigcFb2eTE166SReNv4PI1kv+TYQwNy21gD99td+6skb03mtPL6u7OTZJCMO51rucxvApCMkGK+5t/1WtMmHtJ0xSlQzcm4v6SQhBGNsrfNZ32kmeegveO81JSKNdnUBsVyOs+qG3j3+CEKwmvszgnUlfhPubnf6Vxjayo6/QY+8g4nUMQDyI8GKWsg24+9pHT55tiorvvqvu6+aoFMIMr6j9BJUY6UNP6sMmKnHcnzOaR7esNg0RUg9N+iG0fyMpP/+2uq8bWyJBZXcpuaRz8Uo2TQ+rrYZ6ZnmjnheTakH2ackG50rxrCHEcEGowbS7Igbco106yU5n4gO+xcMIwVceDozZs5ahKicjBkQuhPMLsYo+spv28C2ehdCNFIwEPkXfWzY11UeuLtxvRxCbsFLVUfQHEXohOnVBM0sx/wdaT2Xa4p8LpuZxvI1jda0DV6F7RsK2iE3PASNDG/wxhBYYIcNBtq3yNYTLx8vX19flynLZA0Eb7jmvk9JUNBSKMr3KjM+mKXg8yKWLvWF+EyHJrEUvhE5uYhIMKGiL4yZiIROjTCMsN3bfqWslq5mU98OBTPJCrpZn0otRrDt1ce/iG3EaQjjFP/tpC3sLCPWIW4m7PfhtUppZBDcjvKc02KTWZ+1sk/MuFmRaYBwHXJAeCDv0ISez4q0XQj7HbJN0pE4L5ZgqIwMiA6XXLk2zk35ESFwtTsfQkqYAmhbkCt/VhzfSGND84kEGf/VEuMPd6nThI0Uihdmjdb6FMrkfu3HySJF5G4ZZZwsjKfNsljq5j9kX6NPxtKLflVByhHqSXkAGof0bbR/f6rXvu9DbOcI68Balk0Ozu3vNvjxtoxSNyWGmz95jyxXCtq04Aq6M4HT8od+BU59b9Wgq3/We/LyPLGRthJn/tltZmCzK1aXkIlzdocKXyJZuHuwXV43HNnMcOykR4ZnKZ3O0u3FmOb/PJvUXPWCzl4/PDlqDsHjNBeMW90au67lS52SzO9KGpWguK+8jNi/9MIzmHL4PamNIOxStNkoNQLJIyHL9DkLkiO1BNmm7PsKepfUYptsR5TOwZVqU5XqXjDAiMchuJztjI//Z0KaubVb5h6rl5MolQivBHAEyLcT6WwjRlRUfgDDr5fLVCIsVl4LBjk2QNfhky5Rma/pmw0mqGGG12TKkeI8dI1fhqRNsr8gxApvNcsNvIcRoIpvCu1raR5tJhOarqAWfEytV6LX4BfN0oO87Ecot6xm4bIWJCE0wrBG1NihOUxcYbv7o6HHYqvE9hNxR+Rbf7RWYkOtwfbQhLa/QqlQtb4eGReR0yWSPPKJpAspgH5phiVus6OZrWnkarqU9Qw2tABm9fAThqbbATUrHov3OW9H1kw+vEeGi5a7ylZERqSVbGcoA1lMXQkEiF1UfF+NgTFMhgXWmZae+haOiVif5ytb9EN46qoAeJtjueF4i7uHWJotMM073itk4BaVdroTq+Lgmz+3Lk+aVuBchg9xOFUMUb6ahne1BgaEGLIVoQPDIvOD9ylmMm3tPGu4ayF2ePt4F9jdYbSe/5Gy8jTG3V7wN5BS83cQbpqgEJ50gIrRLN6fPKFMBZy5I2pr1L0UxBnrabHIfegR52RWEzWgka0xknXXtf4g9yIHsVN7yArn6faLweYRwNrgMN8rlWntoDxiDSjLi2idiyl+vIaz/4xIRDrtkMnTC8EwxoUk1NMJxWwrYAWayk4oUb9/N89ag85wVqpw+ATTWhdAeK4AwvJVnSu9v4LNG2e4EZxyC6Dj9OKbQYDqSijtd30VowlSwbBJxwX1R0zmGjoofNOMOmUyKSTPam03QvRhrO/m2W6Daxclsf347Vz9Dd8All21+fyF2IoTVg2Q+OzrKyjGRyWxb2U5gnkcTOZoRimI5FDT99iwtXLJqFCm67iF870LIKEumMx7CSh0E4GvrJ1cQJlNE6GOC6Uv4/fMWOnOqqE+Pjes7CGdIpjOzik00QFh2I3QKHSwQmqR57xMlt/ShNBwc2jIz7+/rds9SaX50IuTvBiqxljMKCIdDM2p9muOTIUlX1GNGP33YtMv80jmXk2dozO+KGtyXBc/pBoZkjUcwOgPijmUCy2ZryduYrqQVLddChvP3uGZ4dJKr/6VMBXCC0fr90Krsoe8gBKsVbYhOvQrsg48fHX/jYL6p1tIWdk4ASN2vtGecRog4TR54Et0fwzmq4skNoQtzeHgPIXgSwJZ2jMo4MSJsOcBS7FE4P5maTzlvAbTgM/ir87jzJX8Up7m1m0oItUPnTLBUH2Sc1op2cFDGmtHYNJbMZkEqFvOfc6IEvFBLkMvd6RdIhOQf3pqlhPDObnKCu1cD5aj00aPSjta4lOsKJr+AyHkOQnT3vBlude/vaUQ2I4Rds/QeQlvFCE1r+0oi3NR/C1Kq5I+TG/wMhG8eLg/cxbu78ymjGLfGUK7DezsgcjfwKDwxqUbLav/QkUeT5pT+rA2eg9DHjPjfxoWFfw1DRAbjjY6QwZV7CO2ADmo0g4aS5ejjyxy2ECWCmFK46glVIyjcbJPmuRdS5GgSm5f7tRWvqA/Nu7tYyR4PPRe1BUVxmqwyGR1B3KO0tpxicGKjfL1qBMXiRWoahnk7ZZealSvwnnHLewCbBmi83kPIA8r2rHsTEGqGUrjNH1VEhS+Vp1WNwPQ93IEydK074EYB3eFND5CRMfJ6V6vK0whFFTzG5E9DCeURGjBiwPmIyOj2T2fit6pGeA6m0eJ5fKdTI4J7B6SK8w3pqlk28RTct25lnL5aieA4I0KatJzWKMXf+fj2Wnv8LDclU/uIsDsViHRVdsvLsnM8k22odxFaghxJX4ZW4TXgyqBUAJmT4CN0b/9MhGgsJws0GLtNLkJ4HrxtGttgnCa8ee6uRUcmlkqdKBFSaMDeGrWudOoDrc9BiDEEGS8IO4M13WPoHfCDaZ9cY3loxqTsBifHQ2KEEFQjngJA30ruvT8NobJyMOYFtLoDuoRwWFw3PC3LR1LLPntYtKCrQaxnqYNLrw7FObyz4sDjCHHRexEi7Dw4Y+PqH+rXTw/xT41CgL1Sa0a0Ekmxg+lSSRpYeiZOI7vJWXweQozvsR096jrl7EhtcV2WjEpEuO+XECZXYrZ26zGE5Qt2FXBFx2gcHnUivKIt7lSNwDxkUHb4R9c0teDDpn5d4NLrZp+QJDWB6Qe6AVIcpr4OGl+o7kwBrmhc2ecxt+I5VSNMVGKy37oDSTO0Sw/XfkJbA7rx0g+gymMDZw+4gZj9ibtrtmrijhi516x4uNbXEWE95Cc1FXTcoJHOtd+lztgOZ6KpXi5EJ0d1328nueoRqkETcNxTRN+CTTLwTND6wHDisyvSYZoTyBF6c9sB0VHDG/JSioaw6+XTZuchslUKFbpGMzdihWJArkJXe37NvQxnv3v/NIwo8b3iwgW2BL3bSxnWpKZ01ndFsbYwf6EDaqSP6YzM0xHitl8ip2nXPjXYLfibi3yEytR85MSelcuADOZwaKm7NGo2ZO73sxHSaQSbcnPMf7rYtGgTxzw/IJvI417duSZnjU2PbM1HhY6HktXGnHk6wpD2zMmY6jzjVeXvHE7TSWXQ/Dz77k6zRMOC+X8L5J8O3mLQ+CcQGtNGmho3qx1gk4v1bN89oXz/HtsCJ+2YC7TI8SBsVqILlayPXH0J4VV9WJ0/rDKPO7W2LaN9yqZt/DCCHT14ksZ2Kic3xCotw2G4os2Y8MjVA/qwhnqlakR9PiOuT9zqs86NRNDQOAWy+dFNslcYUDY3D01SVZYbwRcXstdmKL/EwWxz1To18tWqEU0JMowyc8wIvONCWaykd7XJSxPjXJDj2vP4W5tUSvnFB5nZiPauE4dDLE6JHJp+dn0mPlY1okGIEUwrp8HoThMFs5gCmUq4rGpfjcLemXHnpFCESkAyOdUrTMWPZtPAYr9eRi+jeOI3R7W+O4YyEfCAIc+ie6+U55EMRpvl0hbc5g4lVeVfOLHHgibqG5FTxjfB79xOsAIl8mBxkZf1KH4bIcb0+QrLa3U6GMiXaIpwhevXIKdsV//lK0Ukkk/sHSRVVZDg/MzisJND9vVc/ROEhkpJVpgy1y1rLH44KTNmYCdrayt3Hio4JAG9pHKPcHH6SSyahsVEVSx0Unz9zMwJQrLF2NREqXXFezg2F/N+WlpJkvJ9PzrEffL/WjhGq4MmJ3z8UpdRBmjuyFOD9X6/jlFg82X4JIQYaHMcfL3r+IUlplKWNgUyzZa0mzxSdYirqdKsw3T+z3Y7jrerz/l65teVatc4iiK6j/B2pkLbeUQHw5vBrL9+blU2ATbycDgw5yLf+OYFqaL/EWFHLbMTrsIw9MNwkGmafi7/hl+tGnFaeWFGJ1Qw2/G2D8Vo18Ew18KxmDuG/i6LNhGz7H0CalQnVnYUhaBDbWBN3uW9aZ0Vy8PckXk/Qz28UcSrDrbPpEWDRRS9XT0CRMq8ch70OikZF1b89OBrgwuu5JNsIhov5DtRjHqNoj2NQVGg/Hp1EO3qeEdroHgsDcl0HJMEGvQ9QysPTStT2xNsoSkmGt8ty4yqQw0x765BWDP6jbr6JohC66VEWuG1IyY89+Xx8l/Nf7Ttgh7NRo7zMkebUuuRIAfNkj0zJTUq3O1iX0Ygj4sy3a+XKx6XJEoolUimhz/n5gDa9QlgKIbmldiwzSkmqvhH88XmexNJlZhFawk6utEr7R+TZYhU1VdYz9zO81xl8C8eW8sqbWQHWKr/PIQFdWhJhs1lJa5kkuGMN5qUcMfjYIbrWDNAljhe4U5+1CtawwM6p3HSj5aFthofBX7ltdIOXL2H8RSEciVusf+08ypCllhnaH+GskybwwUfL3xaPHVJJQcPQ+rmjQ3GM4QbRPh2Pt5g6AZvxNVQ0+lLNjOfidBHGSnWNE8/T8dCkDdHpZ0c5v1Sg32kYx1aGMM6vMhzZCPrhZARwsPRmrWwOP2vfC4D+oNh5o+JbFUB5YtVIy4QUq69Y5NTY5yEzoTMKVd2I55s5xODTAt8ohvzqischkayrvVah8kOEYbzLfM8kQiP23kwPzRs6WAe4ectWS7mW2PY2ECylAqapGxJGSFRS3mzFa19bT3imyg8ktI1owloiDk65Fq/uiBiIi2zsIii8u2tLHzfqK8VMLGyN8XznLqE0herRpwqS9Kfcn9NRgelhJQAY/nmxM1LRW+ngczGTWZMdY6uH0JvJrk6Ybk+cBtOuVzsYt1YJF87bzEYXJSKp7iik0g1PpNl4FW2lQK7ZKzyuQmhWUziuny1lSzNRxC6xVld/QqhpoXRRpXTgjvl8++3GGgFlretTCozGr/Yjj2qdtUN8JyILzx4q6fTf5LjKbaXjaE/gNBy9SsIoUWLFZOrw0Kt8QMI5clNlJxISzMnq3GwNomWGTObTA09/fh03FaVAduLU6We8L0QOlS8YABmuzzAiBOiTNcrPqotYqFOjlw9EyG8F1AFX9Sz+nCQhaGWSVpgA/CSQkcL1RVUIx9UtGMzka9x8j6EMKfyDKq6DYLlMlgGv7cqO179YnG280+4eipCaaG487O43SahpBRyf7Ny8a5y18PLdYLXVDNbpHohlMULfNtyqqufTq55Ed4uOuPqmQjBnCEZyrZhVm2ZA0JpyjhCl3EhXVOq8/SGommVYkyXvRHKgw1XEq8xihHPi0uunolwAJ4CfozlE8WsApqzXCoFHkfZdVKZ/+mO+yO8crABjBox8sDL0DP9GlddCPvrw0rzlC66D7bnTPeFX6TzpClMDioqNCttcSQFy/VVMJkn02szXx5lxKwBLi8XcjnP/5mvI/AUB7e4qhFe0YddaQyXeRrwSPmQxe+hV1X0aBw5gRCmw+IFhg2MihbWhTeN9TihI8VApt+R4okBM2PBVL58e5tNJvu3ogCjpmH1KldfqBpxfQZjkDYr80psW3VBCWZPpEflgP2/nkUhnVXTfL+c7Dj9mM6m9SujKROq51zKbOz6HlxVj550d56mzXk7+4mzwM/CrXSpQEMk3Mm3q9U2h3+vrnyiU2c9EVJCNaYb4wl2rb4p6Q/fDpgVqxFodcdywBccbWeGNtTC3ctRONhYQ8lp1QyhY+G9EDpqCAhDx6YaR//e/YeKOdltYzXevi+KSoKZ/o6xK9saDkts3GJFhD28JzvO0JmGsRdv//YNjxSlbS1g0AbznCfMbjQ0WjUsD6LYkgWPtB5RDBsL3ypDGG33X0d4RkuK8WL9ulKF8Kgl+XKR0kFiGkPw8e8jxNJIQyVyMSfyP4lQwTvMiiJN07Isql8ZY6dC2GMM2QK0KO07i2cjvKItho/QatcYAq8gM7SGrd81wtH9uL6YIEIqKl88gavbVSNOHhmPPTonBQgdlY5L9JilSYk/xNwGVphP4Opxq61qV+yjm6QGY6cqBdhjDHHkFDyxZsmqgt/l6mHLu6FVP7m8tPCCVAgIPXpwf5tUhrHxXCVVHPg+V38EobayqzrK9xE6dEEOpn/QWe6/BiFXX8x+COV1DJgu+DchxFUlEd6/2kPul2FpXyyI/NcgXNYIr9bnPmkykC1zr7O/BiHmtY0oetR9PgybO8Pf7ahY2d+DMNskVbWA29fH1E32xLZKFnwGwj+hD7FMikR499BFpVVyW7VGvv4Mro7tobvVu3MCLkjNPFmYWrmbhmkxqnENDrYzejJXT7S8L0kVHhYDq8qSdLYq2vFCUYFncPUjvsUlqcFIXpRk3L0ai+/w5D5dPbH7mxCGwpLl/mf3EKLvNMgWXl1n8G9BaOTO8cqGboTpALNSWH084G9BaG5th2pWRnf0oWVhyVQs5+rIk0h/C0IlsNFTuJ8V5dCVGlQq7vM5XP0phAum2pisZfzuNtuwCgeMNGtObD83ivFz+hAPJoq3wUVlxIvmzbC8xBqzVsJncfWsSEXnewZ4Q94bVrfsVoiOg+8qAcNNxCdx9Zhd2l2f4aZdOhwYMCh0PqjojNRI1wnPabIP+sATuPojljcVKaoK/nedTLDkcdyZwDoT+pO4+jMIB1oqHE4r66MjAbPKuF1yefbhr0KI17MwWULn9iDaMq8U64fQ+ZW/CiFOU1umSX/cinvzX3KL/pOp1jh8Gld/DOHBVUeo4jDZ7TrAXALEMyujWfb3IVQ8xxkblFKnXtGJttgWGZFSbUyKfx5XX0f4gLYgUrsEU26AVFbk5+WGuRtPTJ1IgS507OKJXN2rGvFIfYZOUhgCdUSkwCNzsGRNvSXLZmy8OeBzXVPoTnGxeCZXR6g/arUBKWNr4/kESSpd/nIFY8xzR/k8berjmxvPUhlVQ34+Vz9reSuYTuU15WewzRbz+WJSZkrWPCpjQflW+h1Sj3D1p3wLqhf4yZrCBNgybHgkpnoSLjC5mY2pzuzfiBCrBmC9vJV/lVS4zlFRshxTqv9ShMOMTjFwvgiPpIYU2gyjlYOJRY74pJzxvxQhkJlhkrEjYsKYkfRUsmL9GQuSrQlK0V6k/qMI4aUZo/w3MWKr+frj47DYbMXIowQrh7k7rTrX+9ciBEJlLlP98PAeSxJWpY+BVrSXpdko7J9B+MP6ULYsnIuzg5aWwzy2WoePkurLVQ21o2pE3/oM/UiZxSYXTFZzocPL6nh58CkD8VFSvbhSLl98zMbtbZc2pLTM389V232BZuevsyLMMv0aKV3Psm6uhj24kgi10PejKEqjCE8o/4xv0SaFnY53slWkhldIaVq0/5hOJ2lknpICFqL94eNjlhZZJZgqrnxoN8ZQC7Z5btuw2u18vCk17acR0u2GXaQGxn7lgCxiQvDx3G+R0orp1hGCiYSpq4kpc6bonSLO83F2HWE24ng6Ahsu+7iqN/Eowpr6E5y6YulyFVkCNWm/7I6kjDUXtmXZHBey7cXSVaZ3Im7Z+S2EYE84MHzjcY6q1xFr83G2/GjuPwuhCU6yxVRgaGwJTvUwqViDNtwmlspZ/jv4PWZgIfFkaugNQspNvYZQB4RWnPp4rD/dCQ4Q9/qDbJlz1ePPQog2uiNeCzyyEc3GuVGRyoZ4Gs7dUs0Go5zjOHtzc3gXIY4hRRio4fkQh2uPIsQQ2rMQ7l3QI5FyQSrMAYSYNS9GeNDTm2bdCHHNE8LGDcWMK2+dDR/KCTBjhzLtTlXxF9MLAq7ydXZBCq+GsHnavKdpOJsdL9JaCM9I4RcxtO8iwjrQb+IFnct+5SSOjRA++M6NpmBSW3jxmAp+iUmLMU3BMm48oE2KDBHml2xLmISw6clwVF0PSUOiZdrx6tSjfaTQiVU5KKC85BjWnSsHSdOMo7tbPzuq8MHgOJgNKbTPQqwidEJKWm04tMGZ1YYFO5bnX7cAAAmLSURBVESEswBPSlXV4ZRLA5AQ1qtBVzxLLkv6A5ybIPh8X1cI60VUTj+Df96nES6sYjKZ5IBwBv8/OVTmcqbM5vDiDgWhD8+l2XKYTPBBNP8nKOUTE34HpHaTZo36Nl1fKREeucKzXi/lmeWN9yEzOml9jvB0ud9CODTL7QiPE9rMG+3CGuEwK1Q3wZI44oXjpaC/vAQP0GLy+kiVbGkT1wXr02YveanMf3n/59MR6d8vL0ssCJE4IqWTYcY0gd/ZNvfEwpQyJwOplSwuEL4KWcz3BCFWOJGVc3Q5S/sgxFkqCyUOzCmHjkHbAkyCJC5rg7F0YMLQY8c1AaFrU9FtvC6c09WaerZBHcsFY2BcF7CyXeJVC3APaurBQqMbHPRwJcBz4pwzx3I3oZS7G5DmVU26FkLATTfynCLEkZWk+iPE4mPy8LUxHVngka/TdIaXU9p4fzr+AqS2JYJDmh7eR0tlqL+tggCWjrMMgmCFF08OzWWiWiKfTiaLreC/N8wRJMczRBgJNfEcL9VgBMeJ6q0OYBOvQROIDRmaWplglb/1GULXkrWwTxHi7UIJXWPTe5bq/tjBA+NyBlhg32A8VynwxkdVFlFbywq42Hy8OkU3zbCRNCZd2eCBTTKXx3jXNlhYjpBHpgJur1aMz30D68sZG4G1pSQl+EBCN1wMzTUWMhRBaRzrIGAWkXWtuifoRPbaD+Gw6qslUzndyhMCJEplIlo+eOOyegLedsP8U1rhiSzFAi/e1KyOxmFdZ0sihDG0wJw8VEKrZDhbKqEScVk8Bbna4SFH7v1eD2q/EC+gqST8KUJg116afRBS/NL0yzipy9tPGUrnhhbmMzEMZhqBfURzDSGeC8YEtdoxX3JZ+UNmC1d3ceDJmBX0mt845juuutXWr5LmGJdzvNG0kGYKXhRuX0MIXNqBcX8dwiKaL9bT5dhGK4GWAJbkpIsXa08bBTPWQTSBTfbW0BpcIkQ9jBOuQjijK03xZ1jRrp7NINIERojB95b/4HXu1c4oTKBpjjXewP6WBSHxsnebSgGc1rI4Qdgaw0GDEJUi+hYWT7DOmw1ziO9N0qAjrJZY9QjGQHBMSQIt4GPWzNQurLZKORu/qvr+VakHsAOr8qCktT+NStHDxBMlHsXMNFMzM3+kimp5Y8mwcL0F01p1XmQRGkDojLULA9Cc11yR1VZbCJe+hVodDU/YeOFXnSaaC2mlY/6Gd9nSAgW55yTBITTAPT+xS5sJJT96vA6zhZAunaFxAubY/u3t8DHBfw5r1tTAQldJz4wIhLBqSd1ICMNzI35IYuO1QXjbt7DyabDdrpaHMqyiCpjYWxf0lbMap4FNU6MUdK1tPDXN4SVCTC2UNa6vIvQmNcJ39AJF3XDHzT4iJD6NN+z8EXZrWl0Ufo4QZKksTnvHP3Ti4xaXJG+CuKgLpEiEBQN3TP7MDxAjeKd78xpCVk23I0LnGsJPGCDWaknirk4Q4kUwoGqoWJJeXRR+5ohpuOZnPcaw5T21ELJThDiG9c9mKw7SzubVKJ8jTHZ9ENoWn09P2v4MoYEXaNoBCiLHxtqNw1OEeH+1JZkihOYDCGmWztsISzABm7uwzSyawjhaL8UlQtD3MrXwziz9BDNG1pQ9365tIfRp/QFCEMN4xu8UobHj9XVl92bpJcKDoM6raYGlkTTrBN1W3YxiXmdJnkgaUs7mkVRkq1cRgqTBgmvX0v6PCENhYQlzU0/xjrQ0O0Go43lhdriH8PoY4j2klnWsIkJ30h9rieMuXxZ5dQH1NsKB8mLJ+xSqy5P37DpCGGtcYt2BSV3IMRyGoJ/tbXiiLdBbr1VaRxRjeI6w6tGVXZWbJ82jF2jTNPdnUMfjFVasqBCqTh3FoLytZU1qgAkkJ+tQq/ShKTVu99ENVD3vSCo7uGqjMCVXOM/Ul1nWRnihD2n+k116nsaAN+FZTpHVGRGUbkYJF1qTJEEjR9kQWCGgqFaUkaLUnZmSFBWpBIRUwgEQuqlSF6AYc1QrF8kV5rFlPnQdjLqOwQF0WNisSdSANcop+UYyJa22G1UjWpZ3+8QtKHY+LkwZL5hivKAkW9/XNGlMwiy1qUjdQFvWaknBKxtADTuschrWZCnROWDKoJWnZ3CctBLsUq81KpUJumqqeCkhqDuHmzpx5cdoUk516SlnysG2ZflJMkhQXccnI3eMh5/7+HXDOpY8/wgNsMi3eNW6LAVlBOMD7m8YKViqoxlZrlhgCTD5PtYz0wbDHJV5vHh7W+RsNB1Xp9XpFFuDEFYZHmhOtjMM1YZ+Md1qxGoi8mVaYDHIKYWG9+ih4StFjD1nfRR+6EeHFXjNYlxHHhChlS8avbObb7QjQu86QiP9Bb0v8uD9N0MHeFeJAPDI1eD9c8VgZlYJWrBK0QlU85cFesBGoQqq6SgSexSE8XWEeObLg04UPB5vt6pIGFVjBtg287B0mgtfcH5RaVDJVTh2MSbP1TG+pbJfm1BpIZTxCNrvgP/9Okb8lRHn1xAOzHLlcctyOLKRp5KWdniBznO4jXGa92ou4E0+aOVYKJtgDLNwx8EO48xVPxSp8aX3xOyX9IhwoKxVdCFoz8RmI6yOrH+oAjfDsXKKxcVYFnqvuZrkZE1R2QZrFx5J6RGjKIpN9jX+26iFMN6Og2sIh1r4sbUTljC+XTe9FZabHKM0XF2VZuOJaYcYHnK+oNDDUDOLj+Vqu9n7rZoKA20zXuVthEMjXIwdomaPN3u5pv19kOM2OKzfVRpqp1yF64Bj52HN0GC+p0gn/SAaw0TYrsYraPhv43FrlpJ4uIIQe93008MkPUmC0RQjStNqZ6/xNTOlSNPSOJJqkp1KCnRSRx8ToBqdZ1bUwqNmpAQUeOQfN7SOXFHx+cmr5TEMASbx+zotqPdatKnVavcOQtyKbUeE6dGwvVhvZyrUYnkmyKKUY3aBsDvpoX7UnlmgGjRTLzdxwmzLBsd2JR3es338wTnCS21B9RlOdg9qtoa92GpFMZJ99eiLCC8zFWCgw3KRjzwQd4vqzT9ZNcI4PlLKF9Uehz9wrIPuHFwvbeYbt0n91CnZMpSkBrpR5s7JlX6PkurmStcMv+wi9UNZ0IZQp2jCZloxF/bxYs0fSAk4WaN/Ls+79BxQJnEc5xzdm/zRQnmPIfw3MtkXv8AosGyMdlvsV1BoXyf1H0WohNPfDsWXePxeKvp3SP1HEcI7fvS2/5gV6Ij8ZGrOv4dQ0jKeReo/ivC/QOr/f4T/D6HieSW7/1SbAAAAAElFTkSuQmCC;" vertex="1" parent="1">
          <mxGeometry x="460" y="35" width="30" height="30" as="geometry" />
        </mxCell>
        <mxCell id="8sV5FwSNkH7HSxSM9dJd-30" value="" style="shape=image;verticalLabelPosition=bottom;labelBackgroundColor=default;verticalAlign=top;aspect=fixed;imageAspect=0;image=data:image/png,iVBORw0KGgoAAAANSUhEUgAAAOEAAADhCAMAAAAJbSJIAAAAnFBMVEX///8zZ5Hv7+/u7u719fXy8vL5+fn8/PwxZpArYo4uZI8AUIMbWYgmX4wATIAGUIIUVobp7vJwjqtSd5rz9vjd5ewASX9HdJoXWIi4ydjK1+H6+feascRCbpXi6O3S3OTCz9ucq72Rp72kuMpykKxeg6Suvs2Dn7hYf6GNo7rR1tzH0Nm8y9gARX2GnLO2wc1/lK0AOXZif59zjakpVduOAAAgAElEQVR4nO19iXaruNIu2MxIRmAIGAw4nh17J/l3v/+73aoSYDxhnDi7e9911Ous06FNUZ+GmlQqKUrdtEHV9OZR/WRoNI+G9SOzfmI0j/6TpAbK82j9D+H/EP4P4f8Q/mcRDitSoWGETTNC829FODgnpSlZ5qeTRcD4SYtf19GzEQ6r1qJVP2rRqn6jHV/MskzT8addpLIwLKrmwxghJ5qmZYa/32xVmzFmO6fN5oznwSLy9Uzvy9WwjbBu+B3ZjKZ1PzKJSjRZLObUFov1JNUzInv1PXg+m76vYs6o2ep2vPrnc76YRMUi4AKwqTeawxPPCtamYpr3uDp/cnx0ZczNy2knx1z2ZJEuAvEy8oSQHCee57mjkacuNx+ln2V6m5SeheU8f/EYd2ocloUjZDMBbwm7BQeGreoEbh9RW7Y3Uvc+cDUcXuUKnhxnol4/as2xBxAOdHM4CVTg4Eqv47RKeL5cRKHRzBWl2Ixh1Kxbg1QPFROMq3G8WgXL+XSzWa3iXM5c+QNbqPPQ1G9w1V5rev3kSwgzMw2Yx2t2cSxsm5aP1WJWCHu59uVr5dJNnHooOE8ENRApVkPEZp5wlq/rstCy7MiVqYH0ed0mXjXKFhPvhfKjCIdaONuKCp4NOLiax9sVtO3vGDoZ+K6HyrFBRmzeinLJ5O9hOfH893Kzma4nk8Ni/vk7zmHUbCCjrjYHPTRNXddPptZwoOsghwbldGtLkBbjyyL7QYRKuaq+xL0XdTNLI5CJtLBNJSyi/Wy9zN2Rx6rxhGXGoROIM5cvYYE2tED0ZqFf7qe5tUkLYqtaYYM2QtlgWKMPZ1RRctbKTyE0w90L4eNe/j6jX9aKqtXxhn/YrWwYnOMSgxW0i/DH52zp+nGxNmwdHw1PuPKXnGHPOa4TGT+DMBrTF3iyagbjCi3QkllYvG1yXgkXR8Rr3wDteKfjoZlg0AyjcgLtUBY6WDWmph/FcrGzaRy5vTY7SX0R4Yxx6sFVeXyvlstthCTQdSWLFksBIknkByMb0BQ8IgQhkp2zFb3uPseq7boeiSLPdZm93S3KMMsaPP6O5qrjBV12yzVtodcNVLlsRvNI/q0shIOrIJ4pWv0I6Yd+UURgovihfHAkBSpaXwfqnCQINhzb4m2/nkJbfMyKIkTJWX9Q0xexy9siWbVQ+TB1PC2BdPVNkAQomNmqUK4zSqTqLzaPjlBvWW3m4gU+7bzswmqcNMUs1++fy7EKGpqzXM2D4H06KbU2KR2sTeCgngTvY85FZSOAHLa3nwuUMoPa1DIWLrumKBMRTH1iTacf4TAyx9cesdqObNVDfmrjKosXnP9OVA15Fh42zAVxwqs+JxsFLJuRm9cyU6vnCpIyZ0uUsSesW8C76+ZzmIdaxZa5Sfg1cwBMmqCE2UdcRTEj8ZVmg69Y3lcRajMBQPi2qB4V8/iqSSOVOmP5cq2bmX4ktR4n/IZNAz+Pp75ZS9UyFtd/yNkyMuQMMbaM5M0sexZCLUoQ4DiUD8JXT9y0kyVMLkbjeVpBNNPc6/y9LdxV2nxvd4s4E/OKA2U+wjXjzrLhcxCGW5g6PK5GMLWTOyam7PNfM43kmb9MuvuDuoRty5qxmXN1ppKcqztigSPt2Kn2FITZFCdFUimJafd4NE3M8ZPDLFJZnw5RuVhKLWsYxVjc+pG7riGSYEgi7QkINR/F6CjNkFa49XrhqwAOsrVn3/+xbOzXNCS2svDTu9Ur7riyNg7Ila0WV0ygRxGaSxhCtlQw9GAsk37c2nmIpLKZ6A0QmjeOJFvG/ObAc3VGM0uZ48xiwcMIL/XhDKaMHYe0pv/pCdDhpL+ywx2RdMH+aE1e7tCcjm5BdNgCEQ7NHc5l8XFE2KUPa6jHEJHZoEcx481ogUx7TlFVLEwkVfJHRlCyv63k5fqG1kAZujbQPjeXwJlth/r5rHvMLtXLBIeQuiW9JQDOGw80IpXfEIpdjY0rVhfuzW4Qa/KTQ3T/xSIbns3EGmG/KIYZAJeMpn7Yl2HH9ckhWF2xwe43fpTaNz9Ac0pRJtDlTu6fr7WHxlD3YcnbuZw3fRlmKEeHyseXAGLwoIK4vdmjMDepz2MYRFZbFl9DaE6hmwQpIfOGnXbRZK/qYU/FeQ2iVOyD8U2IfEXrZgHc8WUlRb+GUFtxsJBJBa37rkJYGfjm+xeHECEKGkUtsm5KKo96PRxhAPJbCAs0SD/lnOk5JFbi4yeivh1yrXHq1CHYCzd/oRJT4K44nq5/HaGGa9mb4IOy9yqc4rvm6gtytA0gRAWnzG/20y9iFb8yKrX7CBvN2EJIinKDFOjhtC9CHulgMJT9rNGbjcFCw52Rmx01oomM/HkHslPaUYyqtRAaN5oClp/D8D8rt5fEGcAVUXv/1hBC83ZIx/TdG4vDW5vAFfa7NzFv8X8E0rRzqw1sJ2AZ/vRHPTkTBxIBNy2S3o1JN+KWzmGg6YfmgqFkO5uID0UxwEfhUxCN2aSvwcZJ8C6+I2dkcxLpRdyYp2wOvOofYHGxXYWwFiaP+BYFjJyYGSj7e846/k6kx48apNdIBZKH69Y7e0eEKSDk30FYgm3IS/jTCHrqigcFb2eTE166SReNv4PI1kv+TYQwNy21gD99td+6skb03mtPL6u7OTZJCMO51rucxvApCMkGK+5t/1WtMmHtJ0xSlQzcm4v6SQhBGNsrfNZ32kmeegveO81JSKNdnUBsVyOs+qG3j3+CEKwmvszgnUlfhPubnf6Vxjayo6/QY+8g4nUMQDyI8GKWsg24+9pHT55tiorvvqvu6+aoFMIMr6j9BJUY6UNP6sMmKnHcnzOaR7esNg0RUg9N+iG0fyMpP/+2uq8bWyJBZXcpuaRz8Uo2TQ+rrYZ6ZnmjnheTakH2ackG50rxrCHEcEGowbS7Igbco106yU5n4gO+xcMIwVceDozZs5ahKicjBkQuhPMLsYo+spv28C2ehdCNFIwEPkXfWzY11UeuLtxvRxCbsFLVUfQHEXohOnVBM0sx/wdaT2Xa4p8LpuZxvI1jda0DV6F7RsK2iE3PASNDG/wxhBYYIcNBtq3yNYTLx8vX19flynLZA0Eb7jmvk9JUNBSKMr3KjM+mKXg8yKWLvWF+EyHJrEUvhE5uYhIMKGiL4yZiIROjTCMsN3bfqWslq5mU98OBTPJCrpZn0otRrDt1ce/iG3EaQjjFP/tpC3sLCPWIW4m7PfhtUppZBDcjvKc02KTWZ+1sk/MuFmRaYBwHXJAeCDv0ISez4q0XQj7HbJN0pE4L5ZgqIwMiA6XXLk2zk35ESFwtTsfQkqYAmhbkCt/VhzfSGND84kEGf/VEuMPd6nThI0Uihdmjdb6FMrkfu3HySJF5G4ZZZwsjKfNsljq5j9kX6NPxtKLflVByhHqSXkAGof0bbR/f6rXvu9DbOcI68Balk0Ozu3vNvjxtoxSNyWGmz95jyxXCtq04Aq6M4HT8od+BU59b9Wgq3/We/LyPLGRthJn/tltZmCzK1aXkIlzdocKXyJZuHuwXV43HNnMcOykR4ZnKZ3O0u3FmOb/PJvUXPWCzl4/PDlqDsHjNBeMW90au67lS52SzO9KGpWguK+8jNi/9MIzmHL4PamNIOxStNkoNQLJIyHL9DkLkiO1BNmm7PsKepfUYptsR5TOwZVqU5XqXjDAiMchuJztjI//Z0KaubVb5h6rl5MolQivBHAEyLcT6WwjRlRUfgDDr5fLVCIsVl4LBjk2QNfhky5Rma/pmw0mqGGG12TKkeI8dI1fhqRNsr8gxApvNcsNvIcRoIpvCu1raR5tJhOarqAWfEytV6LX4BfN0oO87Ecot6xm4bIWJCE0wrBG1NihOUxcYbv7o6HHYqvE9hNxR+Rbf7RWYkOtwfbQhLa/QqlQtb4eGReR0yWSPPKJpAspgH5phiVus6OZrWnkarqU9Qw2tABm9fAThqbbATUrHov3OW9H1kw+vEeGi5a7ylZERqSVbGcoA1lMXQkEiF1UfF+NgTFMhgXWmZae+haOiVif5ytb9EN46qoAeJtjueF4i7uHWJotMM073itk4BaVdroTq+Lgmz+3Lk+aVuBchg9xOFUMUb6ahne1BgaEGLIVoQPDIvOD9ylmMm3tPGu4ayF2ePt4F9jdYbSe/5Gy8jTG3V7wN5BS83cQbpqgEJ50gIrRLN6fPKFMBZy5I2pr1L0UxBnrabHIfegR52RWEzWgka0xknXXtf4g9yIHsVN7yArn6faLweYRwNrgMN8rlWntoDxiDSjLi2idiyl+vIaz/4xIRDrtkMnTC8EwxoUk1NMJxWwrYAWayk4oUb9/N89ag85wVqpw+ATTWhdAeK4AwvJVnSu9v4LNG2e4EZxyC6Dj9OKbQYDqSijtd30VowlSwbBJxwX1R0zmGjoofNOMOmUyKSTPam03QvRhrO/m2W6Daxclsf347Vz9Dd8All21+fyF2IoTVg2Q+OzrKyjGRyWxb2U5gnkcTOZoRimI5FDT99iwtXLJqFCm67iF870LIKEumMx7CSh0E4GvrJ1cQJlNE6GOC6Uv4/fMWOnOqqE+Pjes7CGdIpjOzik00QFh2I3QKHSwQmqR57xMlt/ShNBwc2jIz7+/rds9SaX50IuTvBiqxljMKCIdDM2p9muOTIUlX1GNGP33YtMv80jmXk2dozO+KGtyXBc/pBoZkjUcwOgPijmUCy2ZryduYrqQVLddChvP3uGZ4dJKr/6VMBXCC0fr90Krsoe8gBKsVbYhOvQrsg48fHX/jYL6p1tIWdk4ASN2vtGecRog4TR54Et0fwzmq4skNoQtzeHgPIXgSwJZ2jMo4MSJsOcBS7FE4P5maTzlvAbTgM/ir87jzJX8Up7m1m0oItUPnTLBUH2Sc1op2cFDGmtHYNJbMZkEqFvOfc6IEvFBLkMvd6RdIhOQf3pqlhPDObnKCu1cD5aj00aPSjta4lOsKJr+AyHkOQnT3vBlude/vaUQ2I4Rds/QeQlvFCE1r+0oi3NR/C1Kq5I+TG/wMhG8eLg/cxbu78ymjGLfGUK7DezsgcjfwKDwxqUbLav/QkUeT5pT+rA2eg9DHjPjfxoWFfw1DRAbjjY6QwZV7CO2ADmo0g4aS5ejjyxy2ECWCmFK46glVIyjcbJPmuRdS5GgSm5f7tRWvqA/Nu7tYyR4PPRe1BUVxmqwyGR1B3KO0tpxicGKjfL1qBMXiRWoahnk7ZZealSvwnnHLewCbBmi83kPIA8r2rHsTEGqGUrjNH1VEhS+Vp1WNwPQ93IEydK074EYB3eFND5CRMfJ6V6vK0whFFTzG5E9DCeURGjBiwPmIyOj2T2fit6pGeA6m0eJ5fKdTI4J7B6SK8w3pqlk28RTct25lnL5aieA4I0KatJzWKMXf+fj2Wnv8LDclU/uIsDsViHRVdsvLsnM8k22odxFaghxJX4ZW4TXgyqBUAJmT4CN0b/9MhGgsJws0GLtNLkJ4HrxtGttgnCa8ee6uRUcmlkqdKBFSaMDeGrWudOoDrc9BiDEEGS8IO4M13WPoHfCDaZ9cY3loxqTsBifHQ2KEEFQjngJA30ruvT8NobJyMOYFtLoDuoRwWFw3PC3LR1LLPntYtKCrQaxnqYNLrw7FObyz4sDjCHHRexEi7Dw4Y+PqH+rXTw/xT41CgL1Sa0a0Ekmxg+lSSRpYeiZOI7vJWXweQozvsR096jrl7EhtcV2WjEpEuO+XECZXYrZ26zGE5Qt2FXBFx2gcHnUivKIt7lSNwDxkUHb4R9c0teDDpn5d4NLrZp+QJDWB6Qe6AVIcpr4OGl+o7kwBrmhc2ecxt+I5VSNMVGKy37oDSTO0Sw/XfkJbA7rx0g+gymMDZw+4gZj9ibtrtmrijhi516x4uNbXEWE95Cc1FXTcoJHOtd+lztgOZ6KpXi5EJ0d1328nueoRqkETcNxTRN+CTTLwTND6wHDisyvSYZoTyBF6c9sB0VHDG/JSioaw6+XTZuchslUKFbpGMzdihWJArkJXe37NvQxnv3v/NIwo8b3iwgW2BL3bSxnWpKZ01ndFsbYwf6EDaqSP6YzM0xHitl8ip2nXPjXYLfibi3yEytR85MSelcuADOZwaKm7NGo2ZO73sxHSaQSbcnPMf7rYtGgTxzw/IJvI417duSZnjU2PbM1HhY6HktXGnHk6wpD2zMmY6jzjVeXvHE7TSWXQ/Dz77k6zRMOC+X8L5J8O3mLQ+CcQGtNGmho3qx1gk4v1bN89oXz/HtsCJ+2YC7TI8SBsVqILlayPXH0J4VV9WJ0/rDKPO7W2LaN9yqZt/DCCHT14ksZ2Kic3xCotw2G4os2Y8MjVA/qwhnqlakR9PiOuT9zqs86NRNDQOAWy+dFNslcYUDY3D01SVZYbwRcXstdmKL/EwWxz1To18tWqEU0JMowyc8wIvONCWaykd7XJSxPjXJDj2vP4W5tUSvnFB5nZiPauE4dDLE6JHJp+dn0mPlY1okGIEUwrp8HoThMFs5gCmUq4rGpfjcLemXHnpFCESkAyOdUrTMWPZtPAYr9eRi+jeOI3R7W+O4YyEfCAIc+ie6+U55EMRpvl0hbc5g4lVeVfOLHHgibqG5FTxjfB79xOsAIl8mBxkZf1KH4bIcb0+QrLa3U6GMiXaIpwhevXIKdsV//lK0Ukkk/sHSRVVZDg/MzisJND9vVc/ROEhkpJVpgy1y1rLH44KTNmYCdrayt3Hio4JAG9pHKPcHH6SSyahsVEVSx0Unz9zMwJQrLF2NREqXXFezg2F/N+WlpJkvJ9PzrEffL/WjhGq4MmJ3z8UpdRBmjuyFOD9X6/jlFg82X4JIQYaHMcfL3r+IUlplKWNgUyzZa0mzxSdYirqdKsw3T+z3Y7jrerz/l65teVatc4iiK6j/B2pkLbeUQHw5vBrL9+blU2ATbycDgw5yLf+OYFqaL/EWFHLbMTrsIw9MNwkGmafi7/hl+tGnFaeWFGJ1Qw2/G2D8Vo18Ew18KxmDuG/i6LNhGz7H0CalQnVnYUhaBDbWBN3uW9aZ0Vy8PckXk/Qz28UcSrDrbPpEWDRRS9XT0CRMq8ch70OikZF1b89OBrgwuu5JNsIhov5DtRjHqNoj2NQVGg/Hp1EO3qeEdroHgsDcl0HJMEGvQ9QysPTStT2xNsoSkmGt8ty4yqQw0x765BWDP6jbr6JohC66VEWuG1IyY89+Xx8l/Nf7Ttgh7NRo7zMkebUuuRIAfNkj0zJTUq3O1iX0Ygj4sy3a+XKx6XJEoolUimhz/n5gDa9QlgKIbmldiwzSkmqvhH88XmexNJlZhFawk6utEr7R+TZYhU1VdYz9zO81xl8C8eW8sqbWQHWKr/PIQFdWhJhs1lJa5kkuGMN5qUcMfjYIbrWDNAljhe4U5+1CtawwM6p3HSj5aFthofBX7ltdIOXL2H8RSEciVusf+08ypCllhnaH+GskybwwUfL3xaPHVJJQcPQ+rmjQ3GM4QbRPh2Pt5g6AZvxNVQ0+lLNjOfidBHGSnWNE8/T8dCkDdHpZ0c5v1Sg32kYx1aGMM6vMhzZCPrhZARwsPRmrWwOP2vfC4D+oNh5o+JbFUB5YtVIy4QUq69Y5NTY5yEzoTMKVd2I55s5xODTAt8ohvzqischkayrvVah8kOEYbzLfM8kQiP23kwPzRs6WAe4ectWS7mW2PY2ECylAqapGxJGSFRS3mzFa19bT3imyg8ktI1owloiDk65Fq/uiBiIi2zsIii8u2tLHzfqK8VMLGyN8XznLqE0herRpwqS9Kfcn9NRgelhJQAY/nmxM1LRW+ngczGTWZMdY6uH0JvJrk6Ybk+cBtOuVzsYt1YJF87bzEYXJSKp7iik0g1PpNl4FW2lQK7ZKzyuQmhWUziuny1lSzNRxC6xVld/QqhpoXRRpXTgjvl8++3GGgFlretTCozGr/Yjj2qdtUN8JyILzx4q6fTf5LjKbaXjaE/gNBy9SsIoUWLFZOrw0Kt8QMI5clNlJxISzMnq3GwNomWGTObTA09/fh03FaVAduLU6We8L0QOlS8YABmuzzAiBOiTNcrPqotYqFOjlw9EyG8F1AFX9Sz+nCQhaGWSVpgA/CSQkcL1RVUIx9UtGMzka9x8j6EMKfyDKq6DYLlMlgGv7cqO179YnG280+4eipCaaG487O43SahpBRyf7Ny8a5y18PLdYLXVDNbpHohlMULfNtyqqufTq55Ed4uOuPqmQjBnCEZyrZhVm2ZA0JpyjhCl3EhXVOq8/SGommVYkyXvRHKgw1XEq8xihHPi0uunolwAJ4CfozlE8WsApqzXCoFHkfZdVKZ/+mO+yO8crABjBox8sDL0DP9GlddCPvrw0rzlC66D7bnTPeFX6TzpClMDioqNCttcSQFy/VVMJkn02szXx5lxKwBLi8XcjnP/5mvI/AUB7e4qhFe0YddaQyXeRrwSPmQxe+hV1X0aBw5gRCmw+IFhg2MihbWhTeN9TihI8VApt+R4okBM2PBVL58e5tNJvu3ogCjpmH1KldfqBpxfQZjkDYr80psW3VBCWZPpEflgP2/nkUhnVXTfL+c7Dj9mM6m9SujKROq51zKbOz6HlxVj550d56mzXk7+4mzwM/CrXSpQEMk3Mm3q9U2h3+vrnyiU2c9EVJCNaYb4wl2rb4p6Q/fDpgVqxFodcdywBccbWeGNtTC3ctRONhYQ8lp1QyhY+G9EDpqCAhDx6YaR//e/YeKOdltYzXevi+KSoKZ/o6xK9saDkts3GJFhD28JzvO0JmGsRdv//YNjxSlbS1g0AbznCfMbjQ0WjUsD6LYkgWPtB5RDBsL3ypDGG33X0d4RkuK8WL9ulKF8Kgl+XKR0kFiGkPw8e8jxNJIQyVyMSfyP4lQwTvMiiJN07Isql8ZY6dC2GMM2QK0KO07i2cjvKItho/QatcYAq8gM7SGrd81wtH9uL6YIEIqKl88gavbVSNOHhmPPTonBQgdlY5L9JilSYk/xNwGVphP4Opxq61qV+yjm6QGY6cqBdhjDHHkFDyxZsmqgt/l6mHLu6FVP7m8tPCCVAgIPXpwf5tUhrHxXCVVHPg+V38EobayqzrK9xE6dEEOpn/QWe6/BiFXX8x+COV1DJgu+DchxFUlEd6/2kPul2FpXyyI/NcgXNYIr9bnPmkykC1zr7O/BiHmtY0oetR9PgybO8Pf7ahY2d+DMNskVbWA29fH1E32xLZKFnwGwj+hD7FMikR499BFpVVyW7VGvv4Mro7tobvVu3MCLkjNPFmYWrmbhmkxqnENDrYzejJXT7S8L0kVHhYDq8qSdLYq2vFCUYFncPUjvsUlqcFIXpRk3L0ai+/w5D5dPbH7mxCGwpLl/mf3EKLvNMgWXl1n8G9BaOTO8cqGboTpALNSWH084G9BaG5th2pWRnf0oWVhyVQs5+rIk0h/C0IlsNFTuJ8V5dCVGlQq7vM5XP0phAum2pisZfzuNtuwCgeMNGtObD83ivFz+hAPJoq3wUVlxIvmzbC8xBqzVsJncfWsSEXnewZ4Q94bVrfsVoiOg+8qAcNNxCdx9Zhd2l2f4aZdOhwYMCh0PqjojNRI1wnPabIP+sATuPojljcVKaoK/nedTLDkcdyZwDoT+pO4+jMIB1oqHE4r66MjAbPKuF1yefbhr0KI17MwWULn9iDaMq8U64fQ+ZW/CiFOU1umSX/cinvzX3KL/pOp1jh8Gld/DOHBVUeo4jDZ7TrAXALEMyujWfb3IVQ8xxkblFKnXtGJttgWGZFSbUyKfx5XX0f4gLYgUrsEU26AVFbk5+WGuRtPTJ1IgS507OKJXN2rGvFIfYZOUhgCdUSkwCNzsGRNvSXLZmy8OeBzXVPoTnGxeCZXR6g/arUBKWNr4/kESSpd/nIFY8xzR/k8berjmxvPUhlVQ34+Vz9reSuYTuU15WewzRbz+WJSZkrWPCpjQflW+h1Sj3D1p3wLqhf4yZrCBNgybHgkpnoSLjC5mY2pzuzfiBCrBmC9vJV/lVS4zlFRshxTqv9ShMOMTjFwvgiPpIYU2gyjlYOJRY74pJzxvxQhkJlhkrEjYsKYkfRUsmL9GQuSrQlK0V6k/qMI4aUZo/w3MWKr+frj47DYbMXIowQrh7k7rTrX+9ciBEJlLlP98PAeSxJWpY+BVrSXpdko7J9B+MP6ULYsnIuzg5aWwzy2WoePkurLVQ21o2pE3/oM/UiZxSYXTFZzocPL6nh58CkD8VFSvbhSLl98zMbtbZc2pLTM389V232BZuevsyLMMv0aKV3Psm6uhj24kgi10PejKEqjCE8o/4xv0SaFnY53slWkhldIaVq0/5hOJ2lknpICFqL94eNjlhZZJZgqrnxoN8ZQC7Z5btuw2u18vCk17acR0u2GXaQGxn7lgCxiQvDx3G+R0orp1hGCiYSpq4kpc6bonSLO83F2HWE24ng6Ahsu+7iqN/Eowpr6E5y6YulyFVkCNWm/7I6kjDUXtmXZHBey7cXSVaZ3Im7Z+S2EYE84MHzjcY6q1xFr83G2/GjuPwuhCU6yxVRgaGwJTvUwqViDNtwmlspZ/jv4PWZgIfFkaugNQspNvYZQB4RWnPp4rD/dCQ4Q9/qDbJlz1ePPQog2uiNeCzyyEc3GuVGRyoZ4Gs7dUs0Go5zjOHtzc3gXIY4hRRio4fkQh2uPIsQQ2rMQ7l3QI5FyQSrMAYSYNS9GeNDTm2bdCHHNE8LGDcWMK2+dDR/KCTBjhzLtTlXxF9MLAq7ydXZBCq+GsHnavKdpOJsdL9JaCM9I4RcxtO8iwjrQb+IFnct+5SSOjRA++M6NpmBSW3jxmAp+iUmLMU3BMm48oE2KDBHml2xLmISw6clwVF0PSUOiZdrx6tSjfaTQiVU5KKC85BjWnSsHSdOMo7tbPzuq8MHgOJgNKbTPQqwidEJKWm04tMGZ1YYFO5bnX7cAAAmLSURBVESEswBPSlXV4ZRLA5AQ1qtBVzxLLkv6A5ybIPh8X1cI60VUTj+Df96nES6sYjKZ5IBwBv8/OVTmcqbM5vDiDgWhD8+l2XKYTPBBNP8nKOUTE34HpHaTZo36Nl1fKREeucKzXi/lmeWN9yEzOml9jvB0ud9CODTL7QiPE9rMG+3CGuEwK1Q3wZI44oXjpaC/vAQP0GLy+kiVbGkT1wXr02YveanMf3n/59MR6d8vL0ssCJE4IqWTYcY0gd/ZNvfEwpQyJwOplSwuEL4KWcz3BCFWOJGVc3Q5S/sgxFkqCyUOzCmHjkHbAkyCJC5rg7F0YMLQY8c1AaFrU9FtvC6c09WaerZBHcsFY2BcF7CyXeJVC3APaurBQqMbHPRwJcBz4pwzx3I3oZS7G5DmVU26FkLATTfynCLEkZWk+iPE4mPy8LUxHVngka/TdIaXU9p4fzr+AqS2JYJDmh7eR0tlqL+tggCWjrMMgmCFF08OzWWiWiKfTiaLreC/N8wRJMczRBgJNfEcL9VgBMeJ6q0OYBOvQROIDRmaWplglb/1GULXkrWwTxHi7UIJXWPTe5bq/tjBA+NyBlhg32A8VynwxkdVFlFbywq42Hy8OkU3zbCRNCZd2eCBTTKXx3jXNlhYjpBHpgJur1aMz30D68sZG4G1pSQl+EBCN1wMzTUWMhRBaRzrIGAWkXWtuifoRPbaD+Gw6qslUzndyhMCJEplIlo+eOOyegLedsP8U1rhiSzFAi/e1KyOxmFdZ0sihDG0wJw8VEKrZDhbKqEScVk8Bbna4SFH7v1eD2q/EC+gqST8KUJg116afRBS/NL0yzipy9tPGUrnhhbmMzEMZhqBfURzDSGeC8YEtdoxX3JZ+UNmC1d3ceDJmBX0mt845juuutXWr5LmGJdzvNG0kGYKXhRuX0MIXNqBcX8dwiKaL9bT5dhGK4GWAJbkpIsXa08bBTPWQTSBTfbW0BpcIkQ9jBOuQjijK03xZ1jRrp7NINIERojB95b/4HXu1c4oTKBpjjXewP6WBSHxsnebSgGc1rI4Qdgaw0GDEJUi+hYWT7DOmw1ziO9N0qAjrJZY9QjGQHBMSQIt4GPWzNQurLZKORu/qvr+VakHsAOr8qCktT+NStHDxBMlHsXMNFMzM3+kimp5Y8mwcL0F01p1XmQRGkDojLULA9Cc11yR1VZbCJe+hVodDU/YeOFXnSaaC2mlY/6Gd9nSAgW55yTBITTAPT+xS5sJJT96vA6zhZAunaFxAubY/u3t8DHBfw5r1tTAQldJz4wIhLBqSd1ICMNzI35IYuO1QXjbt7DyabDdrpaHMqyiCpjYWxf0lbMap4FNU6MUdK1tPDXN4SVCTC2UNa6vIvQmNcJ39AJF3XDHzT4iJD6NN+z8EXZrWl0Ufo4QZKksTnvHP3Ti4xaXJG+CuKgLpEiEBQN3TP7MDxAjeKd78xpCVk23I0LnGsJPGCDWaknirk4Q4kUwoGqoWJJeXRR+5ohpuOZnPcaw5T21ELJThDiG9c9mKw7SzubVKJ8jTHZ9ENoWn09P2v4MoYEXaNoBCiLHxtqNw1OEeH+1JZkihOYDCGmWztsISzABm7uwzSyawjhaL8UlQtD3MrXwziz9BDNG1pQ9365tIfRp/QFCEMN4xu8UobHj9XVl92bpJcKDoM6raYGlkTTrBN1W3YxiXmdJnkgaUs7mkVRkq1cRgqTBgmvX0v6PCENhYQlzU0/xjrQ0O0Go43lhdriH8PoY4j2klnWsIkJ30h9rieMuXxZ5dQH1NsKB8mLJ+xSqy5P37DpCGGtcYt2BSV3IMRyGoJ/tbXiiLdBbr1VaRxRjeI6w6tGVXZWbJ82jF2jTNPdnUMfjFVasqBCqTh3FoLytZU1qgAkkJ+tQq/ShKTVu99ENVD3vSCo7uGqjMCVXOM/Ul1nWRnihD2n+k116nsaAN+FZTpHVGRGUbkYJF1qTJEEjR9kQWCGgqFaUkaLUnZmSFBWpBIRUwgEQuqlSF6AYc1QrF8kV5rFlPnQdjLqOwQF0WNisSdSANcop+UYyJa22G1UjWpZ3+8QtKHY+LkwZL5hivKAkW9/XNGlMwiy1qUjdQFvWaknBKxtADTuschrWZCnROWDKoJWnZ3CctBLsUq81KpUJumqqeCkhqDuHmzpx5cdoUk516SlnysG2ZflJMkhQXccnI3eMh5/7+HXDOpY8/wgNsMi3eNW6LAVlBOMD7m8YKViqoxlZrlhgCTD5PtYz0wbDHJV5vHh7W+RsNB1Xp9XpFFuDEFYZHmhOtjMM1YZ+Md1qxGoi8mVaYDHIKYWG9+ih4StFjD1nfRR+6EeHFXjNYlxHHhChlS8avbObb7QjQu86QiP9Bb0v8uD9N0MHeFeJAPDI1eD9c8VgZlYJWrBK0QlU85cFesBGoQqq6SgSexSE8XWEeObLg04UPB5vt6pIGFVjBtg287B0mgtfcH5RaVDJVTh2MSbP1TG+pbJfm1BpIZTxCNrvgP/9Okb8lRHn1xAOzHLlcctyOLKRp5KWdniBznO4jXGa92ou4E0+aOVYKJtgDLNwx8EO48xVPxSp8aX3xOyX9IhwoKxVdCFoz8RmI6yOrH+oAjfDsXKKxcVYFnqvuZrkZE1R2QZrFx5J6RGjKIpN9jX+26iFMN6Og2sIh1r4sbUTljC+XTe9FZabHKM0XF2VZuOJaYcYHnK+oNDDUDOLj+Vqu9n7rZoKA20zXuVthEMjXIwdomaPN3u5pv19kOM2OKzfVRpqp1yF64Bj52HN0GC+p0gn/SAaw0TYrsYraPhv43FrlpJ4uIIQe93008MkPUmC0RQjStNqZ6/xNTOlSNPSOJJqkp1KCnRSRx8ToBqdZ1bUwqNmpAQUeOQfN7SOXFHx+cmr5TEMASbx+zotqPdatKnVavcOQtyKbUeE6dGwvVhvZyrUYnkmyKKUY3aBsDvpoX7UnlmgGjRTLzdxwmzLBsd2JR3es338wTnCS21B9RlOdg9qtoa92GpFMZJ99eiLCC8zFWCgw3KRjzwQd4vqzT9ZNcI4PlLKF9Uehz9wrIPuHFwvbeYbt0n91CnZMpSkBrpR5s7JlX6PkurmStcMv+wi9UNZ0IZQp2jCZloxF/bxYs0fSAk4WaN/Ls+79BxQJnEc5xzdm/zRQnmPIfw3MtkXv8AosGyMdlvsV1BoXyf1H0WohNPfDsWXePxeKvp3SP1HEcI7fvS2/5gV6Ij8ZGrOv4dQ0jKeReo/ivC/QOr/f4T/D6HieSW7/1SbAAAAAElFTkSuQmCC;" vertex="1" parent="1">
          <mxGeometry x="600" y="272" width="30" height="30" as="geometry" />
        </mxCell>
        <mxCell id="8sV5FwSNkH7HSxSM9dJd-31" value="" style="shape=image;verticalLabelPosition=bottom;labelBackgroundColor=default;verticalAlign=top;aspect=fixed;imageAspect=0;image=data:image/png,iVBORw0KGgoAAAANSUhEUgAAAOEAAADhCAMAAAAJbSJIAAAAnFBMVEX///8zZ5Hv7+/u7u719fXy8vL5+fn8/PwxZpArYo4uZI8AUIMbWYgmX4wATIAGUIIUVobp7vJwjqtSd5rz9vjd5ewASX9HdJoXWIi4ydjK1+H6+feascRCbpXi6O3S3OTCz9ucq72Rp72kuMpykKxeg6Suvs2Dn7hYf6GNo7rR1tzH0Nm8y9gARX2GnLO2wc1/lK0AOXZif59zjakpVduOAAAgAElEQVR4nO19iXaruNIu2MxIRmAIGAw4nh17J/l3v/+73aoSYDxhnDi7e9911Ous06FNUZ+GmlQqKUrdtEHV9OZR/WRoNI+G9SOzfmI0j/6TpAbK82j9D+H/EP4P4f8Q/mcRDitSoWGETTNC829FODgnpSlZ5qeTRcD4SYtf19GzEQ6r1qJVP2rRqn6jHV/MskzT8addpLIwLKrmwxghJ5qmZYa/32xVmzFmO6fN5oznwSLy9Uzvy9WwjbBu+B3ZjKZ1PzKJSjRZLObUFov1JNUzInv1PXg+m76vYs6o2ep2vPrnc76YRMUi4AKwqTeawxPPCtamYpr3uDp/cnx0ZczNy2knx1z2ZJEuAvEy8oSQHCee57mjkacuNx+ln2V6m5SeheU8f/EYd2ocloUjZDMBbwm7BQeGreoEbh9RW7Y3Uvc+cDUcXuUKnhxnol4/as2xBxAOdHM4CVTg4Eqv47RKeL5cRKHRzBWl2Ixh1Kxbg1QPFROMq3G8WgXL+XSzWa3iXM5c+QNbqPPQ1G9w1V5rev3kSwgzMw2Yx2t2cSxsm5aP1WJWCHu59uVr5dJNnHooOE8ENRApVkPEZp5wlq/rstCy7MiVqYH0ed0mXjXKFhPvhfKjCIdaONuKCp4NOLiax9sVtO3vGDoZ+K6HyrFBRmzeinLJ5O9hOfH893Kzma4nk8Ni/vk7zmHUbCCjrjYHPTRNXddPptZwoOsghwbldGtLkBbjyyL7QYRKuaq+xL0XdTNLI5CJtLBNJSyi/Wy9zN2Rx6rxhGXGoROIM5cvYYE2tED0ZqFf7qe5tUkLYqtaYYM2QtlgWKMPZ1RRctbKTyE0w90L4eNe/j6jX9aKqtXxhn/YrWwYnOMSgxW0i/DH52zp+nGxNmwdHw1PuPKXnGHPOa4TGT+DMBrTF3iyagbjCi3QkllYvG1yXgkXR8Rr3wDteKfjoZlg0AyjcgLtUBY6WDWmph/FcrGzaRy5vTY7SX0R4Yxx6sFVeXyvlstthCTQdSWLFksBIknkByMb0BQ8IgQhkp2zFb3uPseq7boeiSLPdZm93S3KMMsaPP6O5qrjBV12yzVtodcNVLlsRvNI/q0shIOrIJ4pWv0I6Yd+UURgovihfHAkBSpaXwfqnCQINhzb4m2/nkJbfMyKIkTJWX9Q0xexy9siWbVQ+TB1PC2BdPVNkAQomNmqUK4zSqTqLzaPjlBvWW3m4gU+7bzswmqcNMUs1++fy7EKGpqzXM2D4H06KbU2KR2sTeCgngTvY85FZSOAHLa3nwuUMoPa1DIWLrumKBMRTH1iTacf4TAyx9cesdqObNVDfmrjKosXnP9OVA15Fh42zAVxwqs+JxsFLJuRm9cyU6vnCpIyZ0uUsSesW8C76+ZzmIdaxZa5Sfg1cwBMmqCE2UdcRTEj8ZVmg69Y3lcRajMBQPi2qB4V8/iqSSOVOmP5cq2bmX4ktR4n/IZNAz+Pp75ZS9UyFtd/yNkyMuQMMbaM5M0sexZCLUoQ4DiUD8JXT9y0kyVMLkbjeVpBNNPc6/y9LdxV2nxvd4s4E/OKA2U+wjXjzrLhcxCGW5g6PK5GMLWTOyam7PNfM43kmb9MuvuDuoRty5qxmXN1ppKcqztigSPt2Kn2FITZFCdFUimJafd4NE3M8ZPDLFJZnw5RuVhKLWsYxVjc+pG7riGSYEgi7QkINR/F6CjNkFa49XrhqwAOsrVn3/+xbOzXNCS2svDTu9Ur7riyNg7Ila0WV0ygRxGaSxhCtlQw9GAsk37c2nmIpLKZ6A0QmjeOJFvG/ObAc3VGM0uZ48xiwcMIL/XhDKaMHYe0pv/pCdDhpL+ywx2RdMH+aE1e7tCcjm5BdNgCEQ7NHc5l8XFE2KUPa6jHEJHZoEcx481ogUx7TlFVLEwkVfJHRlCyv63k5fqG1kAZujbQPjeXwJlth/r5rHvMLtXLBIeQuiW9JQDOGw80IpXfEIpdjY0rVhfuzW4Qa/KTQ3T/xSIbns3EGmG/KIYZAJeMpn7Yl2HH9ckhWF2xwe43fpTaNz9Ac0pRJtDlTu6fr7WHxlD3YcnbuZw3fRlmKEeHyseXAGLwoIK4vdmjMDepz2MYRFZbFl9DaE6hmwQpIfOGnXbRZK/qYU/FeQ2iVOyD8U2IfEXrZgHc8WUlRb+GUFtxsJBJBa37rkJYGfjm+xeHECEKGkUtsm5KKo96PRxhAPJbCAs0SD/lnOk5JFbi4yeivh1yrXHq1CHYCzd/oRJT4K44nq5/HaGGa9mb4IOy9yqc4rvm6gtytA0gRAWnzG/20y9iFb8yKrX7CBvN2EJIinKDFOjhtC9CHulgMJT9rNGbjcFCw52Rmx01oomM/HkHslPaUYyqtRAaN5oClp/D8D8rt5fEGcAVUXv/1hBC83ZIx/TdG4vDW5vAFfa7NzFv8X8E0rRzqw1sJ2AZ/vRHPTkTBxIBNy2S3o1JN+KWzmGg6YfmgqFkO5uID0UxwEfhUxCN2aSvwcZJ8C6+I2dkcxLpRdyYp2wOvOofYHGxXYWwFiaP+BYFjJyYGSj7e846/k6kx48apNdIBZKH69Y7e0eEKSDk30FYgm3IS/jTCHrqigcFb2eTE166SReNv4PI1kv+TYQwNy21gD99td+6skb03mtPL6u7OTZJCMO51rucxvApCMkGK+5t/1WtMmHtJ0xSlQzcm4v6SQhBGNsrfNZ32kmeegveO81JSKNdnUBsVyOs+qG3j3+CEKwmvszgnUlfhPubnf6Vxjayo6/QY+8g4nUMQDyI8GKWsg24+9pHT55tiorvvqvu6+aoFMIMr6j9BJUY6UNP6sMmKnHcnzOaR7esNg0RUg9N+iG0fyMpP/+2uq8bWyJBZXcpuaRz8Uo2TQ+rrYZ6ZnmjnheTakH2ackG50rxrCHEcEGowbS7Igbco106yU5n4gO+xcMIwVceDozZs5ahKicjBkQuhPMLsYo+spv28C2ehdCNFIwEPkXfWzY11UeuLtxvRxCbsFLVUfQHEXohOnVBM0sx/wdaT2Xa4p8LpuZxvI1jda0DV6F7RsK2iE3PASNDG/wxhBYYIcNBtq3yNYTLx8vX19flynLZA0Eb7jmvk9JUNBSKMr3KjM+mKXg8yKWLvWF+EyHJrEUvhE5uYhIMKGiL4yZiIROjTCMsN3bfqWslq5mU98OBTPJCrpZn0otRrDt1ce/iG3EaQjjFP/tpC3sLCPWIW4m7PfhtUppZBDcjvKc02KTWZ+1sk/MuFmRaYBwHXJAeCDv0ISez4q0XQj7HbJN0pE4L5ZgqIwMiA6XXLk2zk35ESFwtTsfQkqYAmhbkCt/VhzfSGND84kEGf/VEuMPd6nThI0Uihdmjdb6FMrkfu3HySJF5G4ZZZwsjKfNsljq5j9kX6NPxtKLflVByhHqSXkAGof0bbR/f6rXvu9DbOcI68Balk0Ozu3vNvjxtoxSNyWGmz95jyxXCtq04Aq6M4HT8od+BU59b9Wgq3/We/LyPLGRthJn/tltZmCzK1aXkIlzdocKXyJZuHuwXV43HNnMcOykR4ZnKZ3O0u3FmOb/PJvUXPWCzl4/PDlqDsHjNBeMW90au67lS52SzO9KGpWguK+8jNi/9MIzmHL4PamNIOxStNkoNQLJIyHL9DkLkiO1BNmm7PsKepfUYptsR5TOwZVqU5XqXjDAiMchuJztjI//Z0KaubVb5h6rl5MolQivBHAEyLcT6WwjRlRUfgDDr5fLVCIsVl4LBjk2QNfhky5Rma/pmw0mqGGG12TKkeI8dI1fhqRNsr8gxApvNcsNvIcRoIpvCu1raR5tJhOarqAWfEytV6LX4BfN0oO87Ecot6xm4bIWJCE0wrBG1NihOUxcYbv7o6HHYqvE9hNxR+Rbf7RWYkOtwfbQhLa/QqlQtb4eGReR0yWSPPKJpAspgH5phiVus6OZrWnkarqU9Qw2tABm9fAThqbbATUrHov3OW9H1kw+vEeGi5a7ylZERqSVbGcoA1lMXQkEiF1UfF+NgTFMhgXWmZae+haOiVif5ytb9EN46qoAeJtjueF4i7uHWJotMM073itk4BaVdroTq+Lgmz+3Lk+aVuBchg9xOFUMUb6ahne1BgaEGLIVoQPDIvOD9ylmMm3tPGu4ayF2ePt4F9jdYbSe/5Gy8jTG3V7wN5BS83cQbpqgEJ50gIrRLN6fPKFMBZy5I2pr1L0UxBnrabHIfegR52RWEzWgka0xknXXtf4g9yIHsVN7yArn6faLweYRwNrgMN8rlWntoDxiDSjLi2idiyl+vIaz/4xIRDrtkMnTC8EwxoUk1NMJxWwrYAWayk4oUb9/N89ag85wVqpw+ATTWhdAeK4AwvJVnSu9v4LNG2e4EZxyC6Dj9OKbQYDqSijtd30VowlSwbBJxwX1R0zmGjoofNOMOmUyKSTPam03QvRhrO/m2W6Daxclsf347Vz9Dd8All21+fyF2IoTVg2Q+OzrKyjGRyWxb2U5gnkcTOZoRimI5FDT99iwtXLJqFCm67iF870LIKEumMx7CSh0E4GvrJ1cQJlNE6GOC6Uv4/fMWOnOqqE+Pjes7CGdIpjOzik00QFh2I3QKHSwQmqR57xMlt/ShNBwc2jIz7+/rds9SaX50IuTvBiqxljMKCIdDM2p9muOTIUlX1GNGP33YtMv80jmXk2dozO+KGtyXBc/pBoZkjUcwOgPijmUCy2ZryduYrqQVLddChvP3uGZ4dJKr/6VMBXCC0fr90Krsoe8gBKsVbYhOvQrsg48fHX/jYL6p1tIWdk4ASN2vtGecRog4TR54Et0fwzmq4skNoQtzeHgPIXgSwJZ2jMo4MSJsOcBS7FE4P5maTzlvAbTgM/ir87jzJX8Up7m1m0oItUPnTLBUH2Sc1op2cFDGmtHYNJbMZkEqFvOfc6IEvFBLkMvd6RdIhOQf3pqlhPDObnKCu1cD5aj00aPSjta4lOsKJr+AyHkOQnT3vBlude/vaUQ2I4Rds/QeQlvFCE1r+0oi3NR/C1Kq5I+TG/wMhG8eLg/cxbu78ymjGLfGUK7DezsgcjfwKDwxqUbLav/QkUeT5pT+rA2eg9DHjPjfxoWFfw1DRAbjjY6QwZV7CO2ADmo0g4aS5ejjyxy2ECWCmFK46glVIyjcbJPmuRdS5GgSm5f7tRWvqA/Nu7tYyR4PPRe1BUVxmqwyGR1B3KO0tpxicGKjfL1qBMXiRWoahnk7ZZealSvwnnHLewCbBmi83kPIA8r2rHsTEGqGUrjNH1VEhS+Vp1WNwPQ93IEydK074EYB3eFND5CRMfJ6V6vK0whFFTzG5E9DCeURGjBiwPmIyOj2T2fit6pGeA6m0eJ5fKdTI4J7B6SK8w3pqlk28RTct25lnL5aieA4I0KatJzWKMXf+fj2Wnv8LDclU/uIsDsViHRVdsvLsnM8k22odxFaghxJX4ZW4TXgyqBUAJmT4CN0b/9MhGgsJws0GLtNLkJ4HrxtGttgnCa8ee6uRUcmlkqdKBFSaMDeGrWudOoDrc9BiDEEGS8IO4M13WPoHfCDaZ9cY3loxqTsBifHQ2KEEFQjngJA30ruvT8NobJyMOYFtLoDuoRwWFw3PC3LR1LLPntYtKCrQaxnqYNLrw7FObyz4sDjCHHRexEi7Dw4Y+PqH+rXTw/xT41CgL1Sa0a0Ekmxg+lSSRpYeiZOI7vJWXweQozvsR096jrl7EhtcV2WjEpEuO+XECZXYrZ26zGE5Qt2FXBFx2gcHnUivKIt7lSNwDxkUHb4R9c0teDDpn5d4NLrZp+QJDWB6Qe6AVIcpr4OGl+o7kwBrmhc2ecxt+I5VSNMVGKy37oDSTO0Sw/XfkJbA7rx0g+gymMDZw+4gZj9ibtrtmrijhi516x4uNbXEWE95Cc1FXTcoJHOtd+lztgOZ6KpXi5EJ0d1328nueoRqkETcNxTRN+CTTLwTND6wHDisyvSYZoTyBF6c9sB0VHDG/JSioaw6+XTZuchslUKFbpGMzdihWJArkJXe37NvQxnv3v/NIwo8b3iwgW2BL3bSxnWpKZ01ndFsbYwf6EDaqSP6YzM0xHitl8ip2nXPjXYLfibi3yEytR85MSelcuADOZwaKm7NGo2ZO73sxHSaQSbcnPMf7rYtGgTxzw/IJvI417duSZnjU2PbM1HhY6HktXGnHk6wpD2zMmY6jzjVeXvHE7TSWXQ/Dz77k6zRMOC+X8L5J8O3mLQ+CcQGtNGmho3qx1gk4v1bN89oXz/HtsCJ+2YC7TI8SBsVqILlayPXH0J4VV9WJ0/rDKPO7W2LaN9yqZt/DCCHT14ksZ2Kic3xCotw2G4os2Y8MjVA/qwhnqlakR9PiOuT9zqs86NRNDQOAWy+dFNslcYUDY3D01SVZYbwRcXstdmKL/EwWxz1To18tWqEU0JMowyc8wIvONCWaykd7XJSxPjXJDj2vP4W5tUSvnFB5nZiPauE4dDLE6JHJp+dn0mPlY1okGIEUwrp8HoThMFs5gCmUq4rGpfjcLemXHnpFCESkAyOdUrTMWPZtPAYr9eRi+jeOI3R7W+O4YyEfCAIc+ie6+U55EMRpvl0hbc5g4lVeVfOLHHgibqG5FTxjfB79xOsAIl8mBxkZf1KH4bIcb0+QrLa3U6GMiXaIpwhevXIKdsV//lK0Ukkk/sHSRVVZDg/MzisJND9vVc/ROEhkpJVpgy1y1rLH44KTNmYCdrayt3Hio4JAG9pHKPcHH6SSyahsVEVSx0Unz9zMwJQrLF2NREqXXFezg2F/N+WlpJkvJ9PzrEffL/WjhGq4MmJ3z8UpdRBmjuyFOD9X6/jlFg82X4JIQYaHMcfL3r+IUlplKWNgUyzZa0mzxSdYirqdKsw3T+z3Y7jrerz/l65teVatc4iiK6j/B2pkLbeUQHw5vBrL9+blU2ATbycDgw5yLf+OYFqaL/EWFHLbMTrsIw9MNwkGmafi7/hl+tGnFaeWFGJ1Qw2/G2D8Vo18Ew18KxmDuG/i6LNhGz7H0CalQnVnYUhaBDbWBN3uW9aZ0Vy8PckXk/Qz28UcSrDrbPpEWDRRS9XT0CRMq8ch70OikZF1b89OBrgwuu5JNsIhov5DtRjHqNoj2NQVGg/Hp1EO3qeEdroHgsDcl0HJMEGvQ9QysPTStT2xNsoSkmGt8ty4yqQw0x765BWDP6jbr6JohC66VEWuG1IyY89+Xx8l/Nf7Ttgh7NRo7zMkebUuuRIAfNkj0zJTUq3O1iX0Ygj4sy3a+XKx6XJEoolUimhz/n5gDa9QlgKIbmldiwzSkmqvhH88XmexNJlZhFawk6utEr7R+TZYhU1VdYz9zO81xl8C8eW8sqbWQHWKr/PIQFdWhJhs1lJa5kkuGMN5qUcMfjYIbrWDNAljhe4U5+1CtawwM6p3HSj5aFthofBX7ltdIOXL2H8RSEciVusf+08ypCllhnaH+GskybwwUfL3xaPHVJJQcPQ+rmjQ3GM4QbRPh2Pt5g6AZvxNVQ0+lLNjOfidBHGSnWNE8/T8dCkDdHpZ0c5v1Sg32kYx1aGMM6vMhzZCPrhZARwsPRmrWwOP2vfC4D+oNh5o+JbFUB5YtVIy4QUq69Y5NTY5yEzoTMKVd2I55s5xODTAt8ohvzqischkayrvVah8kOEYbzLfM8kQiP23kwPzRs6WAe4ectWS7mW2PY2ECylAqapGxJGSFRS3mzFa19bT3imyg8ktI1owloiDk65Fq/uiBiIi2zsIii8u2tLHzfqK8VMLGyN8XznLqE0herRpwqS9Kfcn9NRgelhJQAY/nmxM1LRW+ngczGTWZMdY6uH0JvJrk6Ybk+cBtOuVzsYt1YJF87bzEYXJSKp7iik0g1PpNl4FW2lQK7ZKzyuQmhWUziuny1lSzNRxC6xVld/QqhpoXRRpXTgjvl8++3GGgFlretTCozGr/Yjj2qdtUN8JyILzx4q6fTf5LjKbaXjaE/gNBy9SsIoUWLFZOrw0Kt8QMI5clNlJxISzMnq3GwNomWGTObTA09/fh03FaVAduLU6We8L0QOlS8YABmuzzAiBOiTNcrPqotYqFOjlw9EyG8F1AFX9Sz+nCQhaGWSVpgA/CSQkcL1RVUIx9UtGMzka9x8j6EMKfyDKq6DYLlMlgGv7cqO179YnG280+4eipCaaG487O43SahpBRyf7Ny8a5y18PLdYLXVDNbpHohlMULfNtyqqufTq55Ed4uOuPqmQjBnCEZyrZhVm2ZA0JpyjhCl3EhXVOq8/SGommVYkyXvRHKgw1XEq8xihHPi0uunolwAJ4CfozlE8WsApqzXCoFHkfZdVKZ/+mO+yO8crABjBox8sDL0DP9GlddCPvrw0rzlC66D7bnTPeFX6TzpClMDioqNCttcSQFy/VVMJkn02szXx5lxKwBLi8XcjnP/5mvI/AUB7e4qhFe0YddaQyXeRrwSPmQxe+hV1X0aBw5gRCmw+IFhg2MihbWhTeN9TihI8VApt+R4okBM2PBVL58e5tNJvu3ogCjpmH1KldfqBpxfQZjkDYr80psW3VBCWZPpEflgP2/nkUhnVXTfL+c7Dj9mM6m9SujKROq51zKbOz6HlxVj550d56mzXk7+4mzwM/CrXSpQEMk3Mm3q9U2h3+vrnyiU2c9EVJCNaYb4wl2rb4p6Q/fDpgVqxFodcdywBccbWeGNtTC3ctRONhYQ8lp1QyhY+G9EDpqCAhDx6YaR//e/YeKOdltYzXevi+KSoKZ/o6xK9saDkts3GJFhD28JzvO0JmGsRdv//YNjxSlbS1g0AbznCfMbjQ0WjUsD6LYkgWPtB5RDBsL3ypDGG33X0d4RkuK8WL9ulKF8Kgl+XKR0kFiGkPw8e8jxNJIQyVyMSfyP4lQwTvMiiJN07Isql8ZY6dC2GMM2QK0KO07i2cjvKItho/QatcYAq8gM7SGrd81wtH9uL6YIEIqKl88gavbVSNOHhmPPTonBQgdlY5L9JilSYk/xNwGVphP4Opxq61qV+yjm6QGY6cqBdhjDHHkFDyxZsmqgt/l6mHLu6FVP7m8tPCCVAgIPXpwf5tUhrHxXCVVHPg+V38EobayqzrK9xE6dEEOpn/QWe6/BiFXX8x+COV1DJgu+DchxFUlEd6/2kPul2FpXyyI/NcgXNYIr9bnPmkykC1zr7O/BiHmtY0oetR9PgybO8Pf7ahY2d+DMNskVbWA29fH1E32xLZKFnwGwj+hD7FMikR499BFpVVyW7VGvv4Mro7tobvVu3MCLkjNPFmYWrmbhmkxqnENDrYzejJXT7S8L0kVHhYDq8qSdLYq2vFCUYFncPUjvsUlqcFIXpRk3L0ai+/w5D5dPbH7mxCGwpLl/mf3EKLvNMgWXl1n8G9BaOTO8cqGboTpALNSWH084G9BaG5th2pWRnf0oWVhyVQs5+rIk0h/C0IlsNFTuJ8V5dCVGlQq7vM5XP0phAum2pisZfzuNtuwCgeMNGtObD83ivFz+hAPJoq3wUVlxIvmzbC8xBqzVsJncfWsSEXnewZ4Q94bVrfsVoiOg+8qAcNNxCdx9Zhd2l2f4aZdOhwYMCh0PqjojNRI1wnPabIP+sATuPojljcVKaoK/nedTLDkcdyZwDoT+pO4+jMIB1oqHE4r66MjAbPKuF1yefbhr0KI17MwWULn9iDaMq8U64fQ+ZW/CiFOU1umSX/cinvzX3KL/pOp1jh8Gld/DOHBVUeo4jDZ7TrAXALEMyujWfb3IVQ8xxkblFKnXtGJttgWGZFSbUyKfx5XX0f4gLYgUrsEU26AVFbk5+WGuRtPTJ1IgS507OKJXN2rGvFIfYZOUhgCdUSkwCNzsGRNvSXLZmy8OeBzXVPoTnGxeCZXR6g/arUBKWNr4/kESSpd/nIFY8xzR/k8berjmxvPUhlVQ34+Vz9reSuYTuU15WewzRbz+WJSZkrWPCpjQflW+h1Sj3D1p3wLqhf4yZrCBNgybHgkpnoSLjC5mY2pzuzfiBCrBmC9vJV/lVS4zlFRshxTqv9ShMOMTjFwvgiPpIYU2gyjlYOJRY74pJzxvxQhkJlhkrEjYsKYkfRUsmL9GQuSrQlK0V6k/qMI4aUZo/w3MWKr+frj47DYbMXIowQrh7k7rTrX+9ciBEJlLlP98PAeSxJWpY+BVrSXpdko7J9B+MP6ULYsnIuzg5aWwzy2WoePkurLVQ21o2pE3/oM/UiZxSYXTFZzocPL6nh58CkD8VFSvbhSLl98zMbtbZc2pLTM389V232BZuevsyLMMv0aKV3Psm6uhj24kgi10PejKEqjCE8o/4xv0SaFnY53slWkhldIaVq0/5hOJ2lknpICFqL94eNjlhZZJZgqrnxoN8ZQC7Z5btuw2u18vCk17acR0u2GXaQGxn7lgCxiQvDx3G+R0orp1hGCiYSpq4kpc6bonSLO83F2HWE24ng6Ahsu+7iqN/Eowpr6E5y6YulyFVkCNWm/7I6kjDUXtmXZHBey7cXSVaZ3Im7Z+S2EYE84MHzjcY6q1xFr83G2/GjuPwuhCU6yxVRgaGwJTvUwqViDNtwmlspZ/jv4PWZgIfFkaugNQspNvYZQB4RWnPp4rD/dCQ4Q9/qDbJlz1ePPQog2uiNeCzyyEc3GuVGRyoZ4Gs7dUs0Go5zjOHtzc3gXIY4hRRio4fkQh2uPIsQQ2rMQ7l3QI5FyQSrMAYSYNS9GeNDTm2bdCHHNE8LGDcWMK2+dDR/KCTBjhzLtTlXxF9MLAq7ydXZBCq+GsHnavKdpOJsdL9JaCM9I4RcxtO8iwjrQb+IFnct+5SSOjRA++M6NpmBSW3jxmAp+iUmLMU3BMm48oE2KDBHml2xLmISw6clwVF0PSUOiZdrx6tSjfaTQiVU5KKC85BjWnSsHSdOMo7tbPzuq8MHgOJgNKbTPQqwidEJKWm04tMGZ1YYFO5bnX7cAAAmLSURBVESEswBPSlXV4ZRLA5AQ1qtBVzxLLkv6A5ybIPh8X1cI60VUTj+Df96nES6sYjKZ5IBwBv8/OVTmcqbM5vDiDgWhD8+l2XKYTPBBNP8nKOUTE34HpHaTZo36Nl1fKREeucKzXi/lmeWN9yEzOml9jvB0ud9CODTL7QiPE9rMG+3CGuEwK1Q3wZI44oXjpaC/vAQP0GLy+kiVbGkT1wXr02YveanMf3n/59MR6d8vL0ssCJE4IqWTYcY0gd/ZNvfEwpQyJwOplSwuEL4KWcz3BCFWOJGVc3Q5S/sgxFkqCyUOzCmHjkHbAkyCJC5rg7F0YMLQY8c1AaFrU9FtvC6c09WaerZBHcsFY2BcF7CyXeJVC3APaurBQqMbHPRwJcBz4pwzx3I3oZS7G5DmVU26FkLATTfynCLEkZWk+iPE4mPy8LUxHVngka/TdIaXU9p4fzr+AqS2JYJDmh7eR0tlqL+tggCWjrMMgmCFF08OzWWiWiKfTiaLreC/N8wRJMczRBgJNfEcL9VgBMeJ6q0OYBOvQROIDRmaWplglb/1GULXkrWwTxHi7UIJXWPTe5bq/tjBA+NyBlhg32A8VynwxkdVFlFbywq42Hy8OkU3zbCRNCZd2eCBTTKXx3jXNlhYjpBHpgJur1aMz30D68sZG4G1pSQl+EBCN1wMzTUWMhRBaRzrIGAWkXWtuifoRPbaD+Gw6qslUzndyhMCJEplIlo+eOOyegLedsP8U1rhiSzFAi/e1KyOxmFdZ0sihDG0wJw8VEKrZDhbKqEScVk8Bbna4SFH7v1eD2q/EC+gqST8KUJg116afRBS/NL0yzipy9tPGUrnhhbmMzEMZhqBfURzDSGeC8YEtdoxX3JZ+UNmC1d3ceDJmBX0mt845juuutXWr5LmGJdzvNG0kGYKXhRuX0MIXNqBcX8dwiKaL9bT5dhGK4GWAJbkpIsXa08bBTPWQTSBTfbW0BpcIkQ9jBOuQjijK03xZ1jRrp7NINIERojB95b/4HXu1c4oTKBpjjXewP6WBSHxsnebSgGc1rI4Qdgaw0GDEJUi+hYWT7DOmw1ziO9N0qAjrJZY9QjGQHBMSQIt4GPWzNQurLZKORu/qvr+VakHsAOr8qCktT+NStHDxBMlHsXMNFMzM3+kimp5Y8mwcL0F01p1XmQRGkDojLULA9Cc11yR1VZbCJe+hVodDU/YeOFXnSaaC2mlY/6Gd9nSAgW55yTBITTAPT+xS5sJJT96vA6zhZAunaFxAubY/u3t8DHBfw5r1tTAQldJz4wIhLBqSd1ICMNzI35IYuO1QXjbt7DyabDdrpaHMqyiCpjYWxf0lbMap4FNU6MUdK1tPDXN4SVCTC2UNa6vIvQmNcJ39AJF3XDHzT4iJD6NN+z8EXZrWl0Ufo4QZKksTnvHP3Ti4xaXJG+CuKgLpEiEBQN3TP7MDxAjeKd78xpCVk23I0LnGsJPGCDWaknirk4Q4kUwoGqoWJJeXRR+5ohpuOZnPcaw5T21ELJThDiG9c9mKw7SzubVKJ8jTHZ9ENoWn09P2v4MoYEXaNoBCiLHxtqNw1OEeH+1JZkihOYDCGmWztsISzABm7uwzSyawjhaL8UlQtD3MrXwziz9BDNG1pQ9365tIfRp/QFCEMN4xu8UobHj9XVl92bpJcKDoM6raYGlkTTrBN1W3YxiXmdJnkgaUs7mkVRkq1cRgqTBgmvX0v6PCENhYQlzU0/xjrQ0O0Go43lhdriH8PoY4j2klnWsIkJ30h9rieMuXxZ5dQH1NsKB8mLJ+xSqy5P37DpCGGtcYt2BSV3IMRyGoJ/tbXiiLdBbr1VaRxRjeI6w6tGVXZWbJ82jF2jTNPdnUMfjFVasqBCqTh3FoLytZU1qgAkkJ+tQq/ShKTVu99ENVD3vSCo7uGqjMCVXOM/Ul1nWRnihD2n+k116nsaAN+FZTpHVGRGUbkYJF1qTJEEjR9kQWCGgqFaUkaLUnZmSFBWpBIRUwgEQuqlSF6AYc1QrF8kV5rFlPnQdjLqOwQF0WNisSdSANcop+UYyJa22G1UjWpZ3+8QtKHY+LkwZL5hivKAkW9/XNGlMwiy1qUjdQFvWaknBKxtADTuschrWZCnROWDKoJWnZ3CctBLsUq81KpUJumqqeCkhqDuHmzpx5cdoUk516SlnysG2ZflJMkhQXccnI3eMh5/7+HXDOpY8/wgNsMi3eNW6LAVlBOMD7m8YKViqoxlZrlhgCTD5PtYz0wbDHJV5vHh7W+RsNB1Xp9XpFFuDEFYZHmhOtjMM1YZ+Md1qxGoi8mVaYDHIKYWG9+ih4StFjD1nfRR+6EeHFXjNYlxHHhChlS8avbObb7QjQu86QiP9Bb0v8uD9N0MHeFeJAPDI1eD9c8VgZlYJWrBK0QlU85cFesBGoQqq6SgSexSE8XWEeObLg04UPB5vt6pIGFVjBtg287B0mgtfcH5RaVDJVTh2MSbP1TG+pbJfm1BpIZTxCNrvgP/9Okb8lRHn1xAOzHLlcctyOLKRp5KWdniBznO4jXGa92ou4E0+aOVYKJtgDLNwx8EO48xVPxSp8aX3xOyX9IhwoKxVdCFoz8RmI6yOrH+oAjfDsXKKxcVYFnqvuZrkZE1R2QZrFx5J6RGjKIpN9jX+26iFMN6Og2sIh1r4sbUTljC+XTe9FZabHKM0XF2VZuOJaYcYHnK+oNDDUDOLj+Vqu9n7rZoKA20zXuVthEMjXIwdomaPN3u5pv19kOM2OKzfVRpqp1yF64Bj52HN0GC+p0gn/SAaw0TYrsYraPhv43FrlpJ4uIIQe93008MkPUmC0RQjStNqZ6/xNTOlSNPSOJJqkp1KCnRSRx8ToBqdZ1bUwqNmpAQUeOQfN7SOXFHx+cmr5TEMASbx+zotqPdatKnVavcOQtyKbUeE6dGwvVhvZyrUYnkmyKKUY3aBsDvpoX7UnlmgGjRTLzdxwmzLBsd2JR3es338wTnCS21B9RlOdg9qtoa92GpFMZJ99eiLCC8zFWCgw3KRjzwQd4vqzT9ZNcI4PlLKF9Uehz9wrIPuHFwvbeYbt0n91CnZMpSkBrpR5s7JlX6PkurmStcMv+wi9UNZ0IZQp2jCZloxF/bxYs0fSAk4WaN/Ls+79BxQJnEc5xzdm/zRQnmPIfw3MtkXv8AosGyMdlvsV1BoXyf1H0WohNPfDsWXePxeKvp3SP1HEcI7fvS2/5gV6Ij8ZGrOv4dQ0jKeReo/ivC/QOr/f4T/D6HieSW7/1SbAAAAAElFTkSuQmCC;" vertex="1" parent="1">
          <mxGeometry x="460" y="500" width="30" height="30" as="geometry" />
        </mxCell>
      </root>
    </mxGraphModel>
  </diagram>
</mxfile>
